<?xml version="1.0" encoding="UTF-8"?>
<svg version="1.1" xmlns="http://www.w3.org/2000/svg" width="512" height="512">
<path d="M0 0 C1.0054184 0.00465271 2.01083679 0.00930542 3.04672241 0.01409912 C52.88075444 0.28412722 52.88075444 0.28412722 73.0625 10.375 C73.124375 9.4675 73.18625 8.56 73.25 7.625 C74.28417663 3.48829346 75.49486317 2.63071763 79.0625 0.375 C82.34996033 -0.13115788 82.34996033 -0.13115788 86.15991211 -0.1396637 C86.86302741 -0.14660922 87.56614271 -0.15355475 88.29056454 -0.16071075 C90.64064933 -0.17897047 92.98972343 -0.16872012 95.33984375 -0.15844727 C97.02703608 -0.16550625 98.71422207 -0.17425119 100.40139771 -0.18455505 C104.97990747 -0.20705985 109.55807173 -0.20410701 114.13661575 -0.19523358 C117.95885409 -0.1901246 121.78102745 -0.19741543 125.60325909 -0.20470566 C134.61935287 -0.22170774 143.6352774 -0.21813525 152.65136719 -0.20141602 C161.95429118 -0.18448806 171.25674617 -0.20033774 180.55961895 -0.2326389 C188.54702827 -0.25932231 196.53429149 -0.26661437 204.52174091 -0.25812382 C209.29225893 -0.2531917 214.06249464 -0.25542572 218.83297729 -0.27591133 C223.31801563 -0.2942493 227.80237833 -0.28833316 232.28738022 -0.26371193 C233.93331438 -0.25869829 235.57929986 -0.2622082 237.22519302 -0.27486038 C239.47260341 -0.29076993 241.71778308 -0.27586425 243.96508789 -0.25318909 C245.85101402 -0.25230962 245.85101402 -0.25230962 247.77503967 -0.25141239 C252.06849962 0.5666892 253.51864314 1.84955077 256.0625 5.375 C256.68891239 8.66246033 256.68891239 8.66246033 256.69068909 12.47241211 C256.70133067 13.52708506 256.70133067 13.52708506 256.71218723 14.60306454 C256.72975561 16.95338443 256.71167053 19.30204791 256.69360352 21.65234375 C256.69874283 23.33953606 256.7060242 25.026723 256.71528625 26.71389771 C256.73380709 31.29250579 256.72085751 35.87053186 256.70119596 40.44911575 C256.68481373 45.2407423 256.69362176 50.03233186 256.69871521 54.82397461 C256.70323664 62.87070007 256.68736325 70.91719312 256.65942383 78.96386719 C256.62737169 88.26674758 256.62738749 97.56920879 256.6446386 106.87211895 C256.66050274 115.82146651 256.65377085 124.77066039 256.63670158 133.72000122 C256.62982923 137.52853486 256.63086543 141.33694538 256.63824654 145.14547729 C256.64590807 149.63046439 256.63378771 154.11497447 256.60639763 158.59988022 C256.5995113 160.24580342 256.5994185 161.89177114 256.60661316 163.53769302 C256.61530404 165.78485684 256.59936046 168.03054726 256.5771637 170.27758789 C256.57435678 171.53487198 256.57154985 172.79215607 256.56865788 174.08753967 C255.96858904 177.9849452 254.87157785 179.64843056 252.0625 182.375 C248.8125 183.1875 248.8125 183.1875 246.0625 183.375 C246.30484375 184.08140625 246.5471875 184.7878125 246.796875 185.515625 C249.01980359 192.32120638 250.76225403 199.11322587 252.1875 206.125 C252.34573242 206.88458008 252.50396484 207.64416016 252.66699219 208.42675781 C255.77933719 224.2625258 256.43629898 239.90180603 256.375 256 C256.37284485 257.01790619 256.3706897 258.03581238 256.36846924 259.08456421 C256.31879854 273.69363523 256.06790191 288.02575853 253.0625 302.375 C252.76448486 303.83728027 252.76448486 303.83728027 252.46044922 305.32910156 C242.33982806 353.7109774 220.4233123 397.69928269 186.0625 433.375 C185.43037598 434.03435547 184.79825195 434.69371094 184.14697266 435.37304688 C175.00252521 444.86130305 165.70515991 453.6012044 155.0625 461.375 C153.91144983 462.23306152 152.76040823 463.09113451 151.609375 463.94921875 C143.41974019 469.98677396 134.91711724 475.36957302 126.0625 480.375 C125.35528809 480.7771875 124.64807617 481.179375 123.91943359 481.59375 C100.78404164 494.6191741 75.61287591 503.36801461 49.625 508.6875 C48.90610596 508.83485596 48.18721191 508.98221191 47.4465332 509.1340332 C31.91987908 512.08515207 16.51936592 512.78207988 0.75 512.75 C-0.76427582 512.74918427 -0.76427582 512.74918427 -2.30914307 512.74835205 C-18.81873539 512.70758601 -34.73532001 511.80029309 -50.9375 508.375 C-51.97938477 508.15537598 -53.02126953 507.93575195 -54.09472656 507.70947266 C-105.48921066 496.4991599 -148.63046531 470.44066197 -185.75 433.75 C-186.80828003 432.71141846 -186.80828003 432.71141846 -187.88793945 431.65185547 C-192.15833937 427.38800601 -195.78419405 423.04814086 -199.15087891 418.03100586 C-200.87681861 416.08250609 -200.87681861 416.08250609 -203.74926758 416.18920898 C-205.62120954 416.44324282 -207.48789505 416.73866784 -209.34765625 417.0703125 C-211.9375 417.375 -211.9375 417.375 -215.4375 415.9375 C-220.84403409 410.39580256 -221.68477184 402.30340724 -223.23193359 394.97143555 C-225.59601212 383.84525647 -228.19897793 373.52534875 -233.45288086 363.35498047 C-242.45036969 345.88601571 -247.98823247 326.5610715 -251.9375 307.375 C-252.14777832 306.37388184 -252.35805664 305.37276367 -252.57470703 304.34130859 C-258.51522866 274.67632843 -259.15140238 240.04317363 -252.9375 210.375 C-252.73882324 209.40014648 -252.54014648 208.42529297 -252.33544922 207.42089844 C-249.9008736 195.78235044 -246.80338712 184.36836119 -243.125 173.0625 C-242.84245361 172.18215088 -242.55990723 171.30180176 -242.26879883 170.39477539 C-240.73431186 165.86596742 -239.15426045 161.65582986 -236.69897461 157.54516602 C-227.40313074 141.16927279 -228.81880798 123.77580899 -229.08911133 105.52600098 C-229.18404243 98.67901422 -229.2108225 91.83183192 -229.21874428 84.98426628 C-229.23025752 82.60996688 -229.26953259 80.23733396 -229.31230164 77.86341858 C-229.32257012 76.41228803 -229.33203882 74.96115153 -229.34057617 73.51000977 C-229.35883957 72.24906998 -229.37710297 70.98813019 -229.3959198 69.6889801 C-228.85369829 65.76918588 -227.69533688 64.15484138 -224.9375 61.375 C-222.33940595 60.07595298 -220.53191276 60.29888111 -217.62426758 60.36010742 C-216.5116304 60.3788945 -215.39899323 60.39768158 -214.25263977 60.41703796 C-213.04133896 60.43797012 -211.83003815 60.45890228 -210.58203125 60.48046875 C-207.34256077 60.50038591 -204.10315276 60.51399382 -200.86363697 60.52346325 C-197.48767146 60.53679715 -194.11455615 60.57093086 -190.73950195 60.65258789 C-170.90722545 61.45249985 -170.90722545 61.45249985 -154.35073853 51.99336243 C-153.31377637 50.93552919 -152.29063091 49.86389355 -151.28482056 48.77639771 C-149.5030667 46.92312993 -147.54237899 45.53858706 -145.38671875 44.1484375 C-144.76112061 43.74222168 -144.13552246 43.33600586 -143.4909668 42.91748047 C-142.56731323 42.33957764 -142.56731323 42.33957764 -141.625 41.75 C-140.92608643 41.30672363 -140.22717285 40.86344727 -139.50708008 40.40673828 C-113.6881601 24.22431586 -85.96347796 12.09442565 -56.125 5.5 C-55.31699951 5.32114258 -54.50899902 5.14228516 -53.67651367 4.95800781 C-50.77157255 4.36429722 -47.86303406 3.85861757 -44.9375 3.375 C-43.81506393 3.18868011 -43.81506393 3.18868011 -42.66995239 2.99859619 C-28.3933138 0.68680962 -14.44956184 -0.11998824 0 0 Z " fill="#FE3980" transform="translate(255.9375,-0.375)"/>
<path d="M0 0 C0.70055203 -0.00438225 1.40110405 -0.00876451 2.12288493 -0.01327956 C4.48196562 -0.02668702 6.84100895 -0.03285074 9.20011902 -0.03897095 C10.88686289 -0.04687033 12.57360507 -0.05513918 14.26034546 -0.06375122 C19.80950807 -0.08998848 25.35867831 -0.10527973 30.90788269 -0.11953735 C32.81649468 -0.12489618 34.72510661 -0.13027368 36.63371849 -0.13566971 C44.57133867 -0.1573002 52.5089568 -0.17603801 60.44659901 -0.1872921 C71.83136402 -0.2035385 83.21578811 -0.23673105 94.60042459 -0.29369295 C102.60047694 -0.33235919 110.60043798 -0.3519208 118.60058135 -0.35721266 C123.38125335 -0.36087045 128.16156189 -0.37293696 132.94213295 -0.4053154 C137.43937438 -0.43533809 141.93603132 -0.44172876 146.43335152 -0.42993164 C148.08414638 -0.42971042 149.73496791 -0.43805534 151.38566971 -0.45558548 C153.63973699 -0.47822068 155.8916746 -0.47001136 158.14575195 -0.45410156 C159.4069325 -0.45741171 160.66811304 -0.46072186 161.96751118 -0.46413231 C166.27137388 0.34292344 167.71669532 1.62091123 170.26335144 5.15390015 C170.88976383 8.44136047 170.88976383 8.44136047 170.89154053 12.25131226 C170.89863491 12.95442756 170.9057293 13.65754286 170.91303867 14.38196468 C170.93060705 16.73228458 170.91252197 19.08094805 170.89445496 21.4312439 C170.89959427 23.1184362 170.90687564 24.80562314 170.9161377 26.49279785 C170.93465853 31.07140594 170.92170895 35.64943201 170.9020474 40.2280159 C170.88566517 45.01964244 170.8944732 49.811232 170.89956665 54.60287476 C170.90408808 62.64960022 170.88821469 70.69609326 170.86027527 78.74276733 C170.82822313 88.04564773 170.82823893 97.34810894 170.84549004 106.6510191 C170.86135418 115.60036665 170.85462229 124.54956053 170.83755302 133.49890137 C170.83068068 137.30743501 170.83171687 141.11584553 170.83909798 144.92437744 C170.84675951 149.40936454 170.83463915 153.89387462 170.80724907 158.37878036 C170.80036275 160.02470356 170.80026994 161.67067129 170.8074646 163.31659317 C170.81615548 165.56375699 170.8002119 167.8094474 170.77801514 170.05648804 C170.77520822 171.31377213 170.77240129 172.57105621 170.76950932 173.86643982 C170.17285537 177.74166584 168.99145042 179.39180708 166.26335144 182.15390015 C163.44510952 183.56302111 161.09083862 183.26573567 157.94303894 183.2515564 C156.686203 183.24833374 155.42936707 183.24511108 154.13444519 183.24179077 C152.81573425 183.23341187 151.49702332 183.22503296 150.13835144 183.21640015 C148.79850933 183.21138504 147.45866544 183.20682215 146.11882019 183.20272827 C142.83361938 183.190911 139.54850747 183.17443632 136.26335144 183.15390015 C136.2435321 183.74066528 136.22371277 184.32743042 136.20329285 184.93197632 C135.81799554 195.89591971 135.32896269 206.84697211 134.38835144 217.77890015 C134.32212585 218.64796997 134.25590027 219.51703979 134.18766785 220.41244507 C133.76253475 224.99418329 133.28669286 228.48370428 130.26335144 232.15390015 C122.13022119 237.92355665 106.63580766 233.50141632 97.26335144 232.15390015 C97.28872986 232.86973267 97.31410828 233.58556519 97.34025574 234.3230896 C97.53406004 244.46973353 96.34773847 254.29257097 95.07585144 264.34140015 C94.84715855 266.19611591 94.61931153 268.05093614 94.39225769 269.90585327 C93.92106751 273.74985116 93.44628441 277.59337943 92.96891785 281.43661499 C91.97326097 289.47516262 91.02214448 297.51894815 90.07026672 305.56277466 C89.55598391 309.90459591 89.03838803 314.24602223 88.52116394 318.5874939 C87.88258303 323.95091 87.24422115 329.31435214 86.60612488 334.67782593 C86.44200356 336.05731667 86.44200356 336.05731667 86.27456665 337.4646759 C86.05420218 339.31709858 85.83387521 341.16952572 85.61358643 343.0219574 C85.07833134 347.52221461 84.54227851 352.02237366 84.00431824 356.52230835 C83.1053266 364.04627584 82.21132947 371.57046295 81.35319519 379.09921265 C81.21929382 380.25928833 81.08539246 381.41936401 80.94743347 382.61459351 C80.71049643 384.67214731 80.47793697 386.73021324 80.25114441 388.78890991 C78.62589459 402.79683384 78.62589459 402.79683384 73.26335144 407.15390015 C70.64569615 408.46272779 69.09128508 408.10249801 66.17741394 407.8296814 C65.09363464 407.72865112 64.00985535 407.62762085 62.89323425 407.52352905 C56.13693332 406.83553876 49.38690472 406.10092517 42.63835144 405.34140015 C41.86045258 405.25430786 41.08255371 405.16721558 40.28108215 405.07748413 C18.129929 402.5974139 -4.01169314 400.05853873 -26.11164856 397.15390015 C-39.7785153 395.3578401 -53.46539154 393.80131322 -67.16893005 392.31533813 C-68.57538676 392.16176383 -69.98162226 392.00614889 -71.38761902 391.84841919 C-75.04737082 391.4385031 -78.70635206 391.06185879 -82.37434387 390.73300171 C-83.89355819 390.58432647 -85.41276419 390.43556607 -86.93196106 390.28671265 C-87.62643341 390.23207855 -88.32090576 390.17744446 -89.03642273 390.12115479 C-93.89641046 389.622289 -96.91508048 388.15579142 -100.73664856 385.15390015 C-103.39505069 381.7069889 -102.90087146 377.98724299 -102.61164856 373.84140015 C-102.56161682 373.05547485 -102.51158508 372.26954956 -102.46003723 371.45980835 C-101.83929423 362.92801386 -100.67180637 354.46731929 -99.53108215 345.99252319 C-97.73475289 332.56850288 -96.23742636 319.11369941 -94.73664856 305.65390015 C-93.05821334 290.6418439 -91.3678791 275.63425569 -89.42414856 260.65390015 C-89.26494934 259.42220093 -89.10575012 258.19050171 -88.94172668 256.92147827 C-88.33157874 252.29564297 -87.6925947 247.72263138 -86.73664856 243.15390015 C-88.581297 243.24091187 -88.581297 243.24091187 -90.46321106 243.3296814 C-92.09598544 243.3766002 -93.72880108 243.42209808 -95.36164856 243.46640015 C-96.57401184 243.52924194 -96.57401184 243.52924194 -97.81086731 243.59335327 C-102.05093618 243.67953353 -104.87015478 243.52388525 -108.26008606 240.8218689 C-112.02343133 236.76766572 -111.86645815 233.75879414 -111.89054871 228.41088867 C-111.89493096 227.72173288 -111.89931321 227.03257708 -111.90382826 226.32253778 C-111.91720726 224.00802168 -111.92339302 221.69354365 -111.92951965 219.3789978 C-111.93742116 217.72166268 -111.94569014 216.06432927 -111.95429993 214.40699768 C-111.98050853 208.96066936 -111.99582373 203.51433339 -112.01008606 198.06796265 C-112.01544571 196.193709 -112.02082322 194.31945541 -112.02621841 192.44520187 C-112.04784304 184.65079985 -112.06658115 176.8563999 -112.07784081 169.06197548 C-112.09409059 157.88649129 -112.12729802 146.71135418 -112.18424165 135.53600085 C-112.22290819 127.68030081 -112.24246943 119.82469376 -112.24776137 111.96890104 C-112.25141858 107.27543151 -112.26347934 102.58233227 -112.29586411 97.88896561 C-112.32588802 93.47460612 -112.33227707 89.0608421 -112.32048035 84.64640236 C-112.32025915 83.02624482 -112.32860222 81.40606009 -112.34613419 79.78599739 C-112.36877376 77.57357167 -112.36055841 75.363315 -112.34465027 73.15087891 C-112.34796041 71.91312021 -112.35127056 70.67536152 -112.35468102 69.40009499 C-111.56915759 65.27415944 -109.89779185 63.81503173 -106.73664856 61.15390015 C-106.24164856 60.65890015 -106.24164856 60.65890015 -105.73664856 60.15390015 C-103.58921307 60.05964419 -101.4386383 60.03647367 -99.28913879 60.04037476 C-98.2794252 60.04015572 -98.2794252 60.04015572 -97.24931335 60.03993225 C-95.01459072 60.04063136 -92.77995046 60.04842362 -90.54524231 60.0562439 C-88.99967494 60.05810808 -87.45410699 60.05953198 -85.90853882 60.06053162 C-81.83307779 60.06435674 -77.75765219 60.07418698 -73.6822052 60.0852356 C-69.52652974 60.09544983 -65.37084857 60.10002926 -61.21516418 60.10507202 C-53.05564269 60.11580926 -44.89615003 60.13288561 -36.73664856 60.15390015 C-36.69926575 59.20128296 -36.66188293 58.24866577 -36.62336731 57.2671814 C-36.55762512 56.01292358 -36.49188293 54.75866577 -36.42414856 53.46640015 C-36.36614075 52.22503296 -36.30813293 50.98366577 -36.24836731 49.7046814 C-35.71918084 46.03269287 -34.96065494 44.08578504 -32.73664856 41.15390015 C-29.68983795 39.12269307 -29.13546532 38.9073014 -25.72492981 38.95858765 C-24.96760559 38.96503296 -24.21028137 38.97147827 -23.43000793 38.9781189 C-22.64432434 38.99487671 -21.85864075 39.01163452 -21.04914856 39.02890015 C-20.2518634 39.03792358 -19.45457825 39.04694702 -18.63313293 39.0562439 C-16.66750956 39.0797843 -14.70204081 39.11565468 -12.73664856 39.15390015 C-12.76806946 37.69367432 -12.76806946 37.69367432 -12.80012512 36.20394897 C-12.87273042 32.57926239 -12.91852191 28.9546396 -12.95637512 25.32943726 C-12.97644414 23.76292091 -13.00370607 22.19647906 -13.03840637 20.63021851 C-13.0871361 18.37360221 -13.10966326 16.11797931 -13.12727356 13.8609314 C-13.1479187 13.16490311 -13.16856384 12.46887482 -13.18983459 11.75175476 C-13.19147888 8.15808079 -12.81680214 6.27708734 -10.8372345 3.23471069 C-7.27919052 -0.28983706 -4.92199971 0.02176649 0 0 Z " fill="#00E193" transform="translate(341.7366485595703,-0.153900146484375)"/>
<path d="M0 0 C1.01790619 0.00215515 2.03581238 0.0043103 3.08456421 0.00653076 C53.10318718 0.17659359 53.10318718 0.17659359 73.375 10.3125 C73.375 19.8825 73.375 29.4525 73.375 39.3125 C65.125 39.5625 65.125 39.5625 62.54589844 39.61035156 C58.8200727 39.77802255 56.9124511 39.89673594 53.890625 42.234375 C51.22378613 45.8909685 50.92259613 48.9634617 50.3125 53.4375 C50.13589844 54.71882813 49.95929688 56.00015625 49.77734375 57.3203125 C49.64457031 58.30773438 49.51179687 59.29515625 49.375 60.3125 C48.0949987 60.31463753 48.0949987 60.31463753 46.78913879 60.31681824 C38.74069237 60.33466001 30.69279512 60.37630804 22.64461231 60.44459057 C18.50706062 60.47885763 14.36987804 60.50397002 10.23217773 60.50805664 C6.23773589 60.51234034 2.24412663 60.54080757 -1.75005531 60.58593178 C-3.27259786 60.59890474 -4.79524006 60.60321512 -6.31783104 60.59865379 C-8.4539272 60.59374567 -10.58759181 60.61984153 -12.72338867 60.65307617 C-14.54540047 60.66306892 -14.54540047 60.66306892 -16.40422058 60.67326355 C-20.63237032 61.5124354 -21.93717996 62.98194307 -24.625 66.3125 C-25.36682042 69.61567633 -25.36682042 69.61567633 -25.24645996 73.29602051 C-25.25284878 73.98688515 -25.2592376 74.6777498 -25.26582003 75.38954973 C-25.28104883 77.69844502 -25.26062549 80.00561833 -25.24023438 82.31445312 C-25.24373625 83.97208728 -25.24939557 85.62971807 -25.25704956 87.28733826 C-25.27129784 91.78539157 -25.25423579 96.2828336 -25.23076439 100.78082848 C-25.21065783 105.48836413 -25.21653485 110.19587435 -25.21887207 114.90344238 C-25.2188185 122.80894045 -25.19906034 130.71419953 -25.16699219 138.61962891 C-25.13009929 147.75886755 -25.12131662 156.89779311 -25.1282897 166.0370965 C-25.13459539 174.82945642 -25.12383917 183.62170899 -25.10432434 192.41404724 C-25.0961505 196.15556874 -25.09344077 199.89703538 -25.09501648 203.63856506 C-25.09589556 208.04469686 -25.08167296 212.45053122 -25.05578995 216.85658455 C-25.04862906 218.47348145 -25.04654416 220.09041 -25.04990768 221.70731926 C-25.05362385 223.91486179 -25.0388714 226.12153697 -25.01940918 228.32897949 C-25.01568047 229.56414055 -25.01195175 230.79930161 -25.00811005 232.07189178 C-24.58787571 235.62652276 -23.77742674 237.47962148 -21.625 240.3125 C-18.6038566 242.3265956 -17.81839983 242.58086596 -14.39453125 242.7265625 C-13.19086914 242.78457031 -13.19086914 242.78457031 -11.96289062 242.84375 C-11.12951172 242.8746875 -10.29613281 242.905625 -9.4375 242.9375 C-8.1700293 242.99550781 -8.1700293 242.99550781 -6.87695312 243.0546875 C-4.79332476 243.14886279 -2.70919247 243.23176675 -0.625 243.3125 C-1.28155251 250.8509725 -2.04550247 258.3715338 -2.89453125 265.890625 C-3.01544632 266.96746048 -3.13636139 268.04429596 -3.26094055 269.15376282 C-3.65144671 272.62353389 -4.04422361 276.09304189 -4.4375 279.5625 C-4.57194519 280.75189178 -4.70639038 281.94128357 -4.84490967 283.16671753 C-6.51579366 297.92726948 -8.26347338 312.66971311 -10.21704102 327.39550781 C-11.44356557 336.71321097 -12.55154054 346.04156181 -13.60150146 355.38058472 C-13.78140653 356.98027843 -13.96256446 358.57983183 -14.14508057 360.17922974 C-14.39780928 362.40028888 -14.64508859 364.62188557 -14.890625 366.84375 C-15.03274414 368.11798828 -15.17486328 369.39222656 -15.32128906 370.70507812 C-16.19125561 379.06174518 -16.19125561 379.06174518 -12.625 386.3125 C-9.46663444 388.27194174 -6.65947242 388.70324032 -2.98828125 389.05859375 C-1.8684082 389.17178955 -0.74853516 389.28498535 0.40527344 389.40161133 C1.6121582 389.51657959 2.81904297 389.63154785 4.0625 389.75 C6.64465596 390.01179372 9.22668571 390.27483498 11.80859375 390.5390625 C13.09878418 390.66958008 14.38897461 390.80009766 15.71826172 390.93457031 C20.69347867 391.44876686 25.65968387 392.02338026 30.625 392.625 C31.6039624 392.74311035 32.5829248 392.8612207 33.59155273 392.98291016 C40.64716134 393.84179801 47.69870958 394.73149234 54.75 395.625 C76.86077001 398.42287768 98.97924942 401.117173 121.125 403.625 C122.82541443 403.81831406 122.82541443 403.81831406 124.56018066 404.01553345 C127.80548947 404.38376505 131.0511049 404.74914026 134.296875 405.11328125 C135.71438049 405.27382996 135.71438049 405.27382996 137.16052246 405.43762207 C139.89747271 405.74210581 142.63587344 406.02832748 145.375 406.3125 C146.96664978 406.49406143 146.96664978 406.49406143 148.5904541 406.67929077 C149.65534058 406.7892337 150.72022705 406.89917664 151.81738281 407.01245117 C152.78476379 407.11764572 153.75214478 407.22284027 154.74884033 407.33122253 C157.62573453 407.31071245 159.00933122 406.91776364 161.375 405.3125 C166.17496165 398.11255753 165.82348334 387.11714045 166.7421875 378.63671875 C166.86159698 377.56206863 166.98100647 376.48741852 167.10403442 375.38020325 C167.35756729 373.09833552 167.6098104 370.81632417 167.86083984 368.53417969 C171.30862704 337.22290779 171.30862704 337.22290779 173.375 321.8125 C175.26759061 307.62516255 176.88816687 293.40903857 178.5 279.1875 C178.62842285 278.05965088 178.7568457 276.93180176 178.88916016 275.76977539 C180.53447704 261.29668944 182.05032672 246.81853762 183.375 232.3125 C185.01770874 232.42791138 185.01770874 232.42791138 186.69360352 232.5456543 C202.17885943 234.79139276 202.17885943 234.79139276 216.375 231.3125 C218.0749822 228.46670842 218.6861155 226.10356019 218.96923828 222.81933594 C219.04917023 221.93872498 219.12910217 221.05811401 219.2114563 220.15081787 C219.28862885 219.20901672 219.36580139 218.26721558 219.4453125 217.296875 C219.53126678 216.32590881 219.61722107 215.35494263 219.70578003 214.35455322 C219.97815344 211.25781232 220.23921385 208.16023609 220.5 205.0625 C220.68284871 202.96087255 220.86643371 200.85930901 221.05078125 198.7578125 C221.50211714 193.6101437 221.93814088 188.46149968 222.375 183.3125 C230.295 183.3125 238.215 183.3125 246.375 183.3125 C248.88616221 190.84598664 250.91973802 198.28809449 252.5 206.0625 C252.65823242 206.82208008 252.81646484 207.58166016 252.97949219 208.36425781 C256.09183719 224.2000258 256.74879898 239.83930603 256.6875 255.9375 C256.68534485 256.95540619 256.6831897 257.97331238 256.68096924 259.02206421 C256.63129854 273.63113523 256.38040191 287.96325853 253.375 302.3125 C253.07698486 303.77478027 253.07698486 303.77478027 252.77294922 305.26660156 C242.65232806 353.6484774 220.7358123 397.63678269 186.375 433.3125 C185.74287598 433.97185547 185.11075195 434.63121094 184.45947266 435.31054688 C175.31502521 444.79880305 166.01765991 453.5387044 155.375 461.3125 C154.22394983 462.17056152 153.07290823 463.02863451 151.921875 463.88671875 C143.73224019 469.92427396 135.22961724 475.30707302 126.375 480.3125 C125.66778809 480.7146875 124.96057617 481.116875 124.23193359 481.53125 C101.09654164 494.5566741 75.92537591 503.30551461 49.9375 508.625 C49.21860596 508.77235596 48.49971191 508.91971191 47.7590332 509.0715332 C33.08339502 511.86090125 18.55831162 512.66142619 3.64770508 512.62817383 C0.70811513 512.6250221 -2.2304558 512.64854926 -5.16992188 512.67382812 C-18.36294782 512.71661037 -31.68616039 512.13022803 -44.625 509.3125 C-46.20214137 507.73535863 -45.75294324 506.15721527 -45.75630188 503.96720886 C-45.76031006 503.02922958 -45.76431824 502.09125031 -45.76844788 501.12484741 C-45.76791916 500.08744415 -45.76739044 499.05004089 -45.7668457 497.98120117 C-45.77205734 496.35202003 -45.77205734 496.35202003 -45.77737427 494.68992615 C-45.7847471 492.32231856 -45.7900843 489.95470399 -45.79366493 487.58708763 C-45.80080484 483.84310099 -45.81645257 480.09924738 -45.83500671 476.3553009 C-45.88759436 465.70717162 -45.93590273 455.05913991 -45.95092773 444.41088867 C-45.96020039 437.90627647 -45.9902725 431.40193895 -46.03224754 424.89745522 C-46.04458945 422.41392842 -46.04967302 419.9303548 -46.04744911 417.44679832 C-46.04510525 413.97483089 -46.06719484 410.50382082 -46.0949707 407.03198242 C-46.08836929 406.00065186 -46.08176788 404.96932129 -46.07496643 403.90673828 C-46.07175012 398.45032021 -46.07175012 398.45032021 -48.47062683 393.70503235 C-52.83986768 390.88086553 -57.20479872 391.09905985 -62.23046875 390.99609375 C-63.48927605 390.9649221 -63.48927605 390.9649221 -64.77351379 390.93312073 C-67.45309294 390.86775982 -70.13276969 390.80880286 -72.8125 390.75 C-74.62956737 390.70680198 -76.44662488 390.66318727 -78.26367188 390.61914062 C-82.71734799 390.5120922 -87.17112226 390.41078681 -91.625 390.3125 C-88.11240152 387.97076768 -84.79572448 387.31609564 -80.73828125 386.47265625 C-79.96244186 386.30503281 -79.18660248 386.13740936 -78.38725281 385.96470642 C-75.90526597 385.42869567 -73.42164655 384.90090449 -70.9375 384.375 C-67.68204227 383.68539515 -64.42849026 382.98759805 -61.17578125 382.28515625 C-60.43902664 382.13192398 -59.70227203 381.97869171 -58.94319153 381.82081604 C-49.92650342 380.05285127 -49.92650342 380.05285127 -42.625 375.0625 C-40.74307203 369.88719808 -41.44987286 365.64271573 -42.94921875 360.484375 C-44.68168927 354.27190816 -46.0452619 348.00320207 -47.38500977 341.69604492 C-49.94120239 329.6858812 -52.68809537 317.73498085 -55.625 305.8125 C-59.58800008 289.70726134 -63.15657309 273.53127509 -66.625 257.3125 C-66.91316846 255.967919 -67.20141849 254.62335548 -67.48974609 253.27880859 C-68.20198973 249.95681091 -68.91371478 246.63470299 -69.625 243.3125 C-68.53960937 243.28671875 -67.45421875 243.2609375 -66.3359375 243.234375 C-64.89058651 243.17806262 -63.44527556 243.120716 -62 243.0625 C-61.28714844 243.04832031 -60.57429688 243.03414062 -59.83984375 243.01953125 C-54.74169398 242.78567117 -51.64728433 241.7035951 -47.625 238.3125 C-46.47654365 234.86713095 -46.49037613 232.19847984 -46.47782898 228.5627594 C-46.47415229 227.87289804 -46.4704756 227.18303668 -46.4666875 226.47227043 C-46.45565433 224.15541562 -46.45180751 221.83860566 -46.44799805 219.52172852 C-46.4417333 217.86277117 -46.43508649 216.20381524 -46.42808533 214.54486084 C-46.41068097 210.03458806 -46.40012586 205.52432587 -46.3918798 201.01402783 C-46.38673014 198.19763775 -46.38065451 195.38125096 -46.37436867 192.5648632 C-46.35532114 183.75706012 -46.34108711 174.94926542 -46.3327567 166.1414457 C-46.32297435 155.96611658 -46.29662707 145.79100443 -46.25625581 135.6157518 C-46.22613451 127.75497009 -46.21129176 119.89425072 -46.20797569 112.0334124 C-46.20562133 107.33612217 -46.19661058 102.63906386 -46.17151451 97.9418354 C-46.14829729 93.52507493 -46.14397476 89.10870013 -46.15427589 84.69189453 C-46.15477286 83.06971392 -46.14840521 81.44751473 -46.13471985 79.82539177 C-46.11709556 77.6128696 -46.12405852 75.40174597 -46.13725281 73.18922424 C-46.13486445 71.95054376 -46.1324761 70.71186327 -46.13001537 69.43564701 C-46.72049585 65.70996095 -47.65315946 64.56196805 -50.625 62.3125 C-53.46551929 61.36566024 -55.25312968 61.17758824 -58.19975281 61.15428162 C-59.1378479 61.1444928 -60.07594299 61.13470398 -61.04246521 61.12461853 C-62.58318443 61.11598534 -62.58318443 61.11598534 -64.1550293 61.10717773 C-65.77965591 61.09232834 -65.77965591 61.09232834 -67.43710327 61.07717896 C-71.0244527 61.04553945 -74.61181539 61.02079674 -78.19921875 60.99609375 C-80.68358203 60.97552635 -83.1679418 60.95452993 -85.65229797 60.93312073 C-91.52768324 60.88352732 -97.40308945 60.83826769 -103.27852517 60.79509836 C-110.62387146 60.74086417 -117.9691583 60.67991788 -125.31445312 60.61914062 C-138.41792909 60.51153214 -151.52144443 60.40990657 -164.625 60.3125 C-134.66167998 30.02001607 -90.21651607 12.39827204 -49.1875 4 C-48.46860596 3.85264404 -47.74971191 3.70528809 -47.0090332 3.5534668 C-31.36274391 0.57960912 -15.88931954 -0.06050362 0 0 Z " fill="#314DC9" transform="translate(255.625,-0.3125)"/>
<path d="M0 0 C1.22355698 0.00222061 2.44711395 0.00444122 3.70774841 0.00672913 C4.71746201 0.00651009 4.71746201 0.00651009 5.74757385 0.00628662 C7.98229649 0.00698573 10.21693674 0.01477799 12.4516449 0.02259827 C13.99721226 0.02446245 15.54278022 0.02588635 17.08834839 0.02688599 C21.16380941 0.03071112 25.23923502 0.04054135 29.31468201 0.05158997 C33.47035747 0.0618042 37.62603864 0.06638363 41.78172302 0.07142639 C49.94124452 0.08216363 58.10073718 0.09923998 66.26023865 0.12025452 C65.54124417 14.85279091 64.41040671 29.54348151 63.22898865 44.24525452 C63.03087151 46.72904712 62.83291718 49.21285271 62.63511658 51.69667053 C62.22291569 56.86710683 61.80928877 62.03742626 61.39451599 67.20765686 C60.86446126 73.81541377 60.33721052 80.42339063 59.81092072 87.03144836 C59.40338421 92.14630173 58.99478042 97.26106938 58.58581543 102.37580872 C58.39103026 104.81251678 58.1964772 107.24924341 58.00216675 109.68598938 C57.73048602 113.08994156 57.45746725 116.49378383 57.18406677 119.89759827 C57.10507645 120.89000015 57.02608612 121.88240204 56.94470215 122.90487671 C56.51242111 128.26737695 56.02707744 133.62037244 55.46977997 138.97138977 C55.1783774 141.95974882 55.01805702 144.93127051 54.94773865 147.93275452 C54.91035583 148.99107483 54.87297302 150.04939514 54.8344574 151.13978577 C55.36438619 154.84928731 56.6830696 156.45702046 59.26023865 159.12025452 C61.89304625 160.43665832 64.16644439 160.49327328 67.10423279 160.76649475 C68.96222755 160.94100914 68.96222755 160.94100914 70.85775757 161.11904907 C72.23277721 161.24343805 73.60782391 161.36752821 74.9828949 161.49134827 C76.41942702 161.62326205 77.85595546 161.75521583 79.29248047 161.88720703 C95.92654045 163.40194807 112.57848092 164.69869862 129.23100281 165.99104309 C133.35741506 166.31174236 137.48362477 166.63502482 141.60984802 166.95814514 C143.24092036 167.08578824 144.87199336 167.21342298 146.50306702 167.34104919 C148.89865065 167.52851481 151.29423389 167.71598555 153.68981552 167.90347672 C155.99697693 168.08402763 158.3041437 168.26450983 160.61131287 168.44496155 C161.34859808 168.50265024 162.08588329 168.56033894 162.84551048 168.61977577 C167.55007762 168.9875669 172.25495105 169.35122665 176.95994568 169.71351624 C179.2176027 169.88936673 181.47525298 170.06530392 183.7328949 170.24134827 C184.73082565 170.31708572 185.72875641 170.39282318 186.75692749 170.47085571 C191.30737345 170.8282849 195.76912403 171.26678825 200.26023865 172.12025452 C200.64671657 183.02138576 199.43871241 193.51557197 198.07273865 204.30775452 C197.84404576 206.16247028 197.61619873 208.01729051 197.3891449 209.87220764 C196.91795472 213.71620553 196.44317162 217.5597338 195.96580505 221.40296936 C194.97014817 229.44151699 194.01903168 237.48530252 193.06715393 245.52912903 C192.55287112 249.87095028 192.03527523 254.2123766 191.51805115 258.55384827 C190.87947024 263.91726437 190.24110836 269.28070651 189.60301208 274.6441803 C189.43889076 276.02367104 189.43889076 276.02367104 189.27145386 277.43103027 C189.05108939 279.28345295 188.83076242 281.13588009 188.61047363 282.98831177 C188.07521854 287.48856898 187.53916572 291.98872803 187.00120544 296.48866272 C186.10221381 304.01263021 185.20821668 311.53681732 184.3500824 319.06556702 C184.21618103 320.2256427 184.08227966 321.38571838 183.94432068 322.58094788 C183.70738364 324.63850168 183.47482418 326.69656761 183.24803162 328.75526428 C181.6227818 342.76318821 181.6227818 342.76318821 176.26023865 347.12025452 C173.64258336 348.42908216 172.08817229 348.06885238 169.17430115 347.79603577 C168.09052185 347.69500549 167.00674255 347.59397522 165.89012146 347.48988342 C159.13382052 346.80189313 152.38379192 346.06727954 145.63523865 345.30775452 C144.85733978 345.22066223 144.07944092 345.13356995 143.27796936 345.0438385 C121.12681621 342.56376827 98.98519407 340.0248931 76.88523865 337.12025452 C63.21837191 335.32419447 49.53149567 333.76766759 35.82795715 332.2816925 C34.42150044 332.1281182 33.01526495 331.97250326 31.60926819 331.81477356 C27.94951639 331.40485747 24.29053514 331.02821316 20.62254333 330.69935608 C19.10332901 330.55068084 17.58412302 330.40192044 16.06492615 330.25306702 C15.3704538 330.19843292 14.67598145 330.14379883 13.96046448 330.08750916 C9.10047675 329.58864337 6.08180673 328.12214579 2.26023865 325.12025452 C-0.39816349 321.67334327 0.09601574 317.95359736 0.38523865 313.80775452 C0.43527039 313.02182922 0.48530212 312.23590393 0.53684998 311.42616272 C1.15759297 302.89436823 2.32508083 294.43367366 3.46580505 285.95887756 C5.26213431 272.53485725 6.75946085 259.08005378 8.26023865 245.62025452 C9.93867387 230.60819827 11.62900811 215.60061006 13.57273865 200.62025452 C13.73193787 199.3885553 13.89113708 198.15685608 14.05516052 196.88783264 C14.66530847 192.26199734 15.30429251 187.68898575 16.26023865 183.12025452 C14.41559021 183.20726624 14.41559021 183.20726624 12.53367615 183.29603577 C10.90090177 183.34295457 9.26808612 183.38845245 7.63523865 183.43275452 C6.42287537 183.49559631 6.42287537 183.49559631 5.1860199 183.55970764 C0.94595103 183.6458879 -1.87326757 183.49023962 -5.26319885 180.78822327 C-9.02654412 176.73402009 -8.86957094 173.72514851 -8.8936615 168.37724304 C-8.89804375 167.68808725 -8.90242601 166.99893145 -8.90694106 166.28889215 C-8.92032005 163.97437605 -8.92650581 161.65989803 -8.93263245 159.34535217 C-8.94053396 157.68801705 -8.94880294 156.03068365 -8.95741272 154.37335205 C-8.98362132 148.92702373 -8.99893652 143.48068776 -9.01319885 138.03431702 C-9.0185585 136.16006337 -9.02393601 134.28580978 -9.02933121 132.41155624 C-9.05095583 124.61715422 -9.06969394 116.82275427 -9.0809536 109.02832985 C-9.09720339 97.85284566 -9.13041081 86.67770855 -9.18735445 75.50235522 C-9.22602099 67.64665518 -9.24558223 59.79104813 -9.25087416 51.93525541 C-9.25453137 47.24178588 -9.26659213 42.54868664 -9.2989769 37.85531998 C-9.32900082 33.44096049 -9.33538986 29.02719647 -9.32359314 24.61275673 C-9.32337194 22.99259919 -9.33171501 21.37241446 -9.34924698 19.75235176 C-9.37188655 17.53992604 -9.3636712 15.32966937 -9.34776306 13.11723328 C-9.35107321 11.87947458 -9.35438335 10.64171589 -9.35779381 9.36644936 C-8.57227039 5.24051381 -6.90090465 3.78138611 -3.73976135 1.12025452 C-2.73976135 0.12025452 -2.73976135 0.12025452 0 0 Z " fill="#FECC6A" transform="translate(238.73976135253906,59.87974548339844)"/>
<path d="M0 0 C7.46298374 5.57764913 8.29547112 21.66109298 10.19482422 30.51733398 C11.05058524 34.50395906 11.92556176 38.48635873 12.80078125 42.46875 C12.97622467 43.2680896 13.15166809 44.0674292 13.33242798 44.89099121 C14.91297153 52.05690526 16.62320279 59.18640863 18.375 66.3125 C21.2120716 77.87796296 23.82620208 89.48282747 26.38021851 101.11312866 C28.96087493 112.85415312 31.70492903 124.54259088 34.56884766 136.21801758 C36.36271034 143.56738997 37.99869036 150.91534821 39.3671875 158.35546875 C39.76342313 160.80345113 39.76342313 160.80345113 40.875 162.8125 C41.25434197 167.83878116 40.89948301 170.74108056 37.875 174.8125 C35.62883233 177.05866767 34.57868151 177.32391602 31.5546875 178.07421875 C30.64404541 178.30222168 29.73340332 178.53022461 28.79516602 178.76513672 C27.79026123 179.0076416 26.78535645 179.25014648 25.75 179.5 C24.16046509 179.89082764 24.16046509 179.89082764 22.53881836 180.28955078 C13.19582625 182.55692152 3.80624746 184.6025003 -5.59234619 186.62411499 C-16.66640867 189.0082039 -27.6747027 191.60709916 -38.67312622 194.31716919 C-50.55865884 197.24161407 -62.48624061 199.92358168 -74.45898438 202.46679688 C-80.97438248 203.86077325 -87.40819864 205.35873617 -93.80566406 207.22558594 C-97.49323974 208.15873667 -100.32884876 208.27065618 -104.125 207.8125 C-108.39492393 205.07569892 -109.89466133 202.8307626 -111.234375 197.984375 C-111.55599609 196.82744141 -111.87761719 195.67050781 -112.20898438 194.47851562 C-113.73613313 188.36666444 -115.08689976 182.2287406 -116.375 176.0625 C-116.97893956 173.22277751 -117.58950677 170.38452088 -118.203125 167.546875 C-118.35930298 166.82459717 -118.51548096 166.10231934 -118.6763916 165.3581543 C-120.35830389 157.64326776 -122.23439787 149.97839697 -124.125 142.3125 C-126.94679801 130.85549944 -129.57329642 119.3723081 -132.04922485 107.83584595 C-134.30403834 97.34768187 -136.75487696 86.91826364 -139.3125 76.5 C-143.70662611 58.5693398 -143.70662611 58.5693398 -145.625 49.625 C-145.78508545 48.89563232 -145.9451709 48.16626465 -146.11010742 47.41479492 C-146.93131011 43.4754023 -147.68788556 39.81223487 -147.125 35.8125 C-144.0836916 31.27967568 -142.01158409 29.23431831 -136.50596619 27.96478271 C-135.78985672 27.82429504 -135.07374725 27.68380737 -134.3359375 27.5390625 C-133.5726564 27.36957092 -132.80937531 27.20007935 -132.02296448 27.02545166 C-129.5194574 26.47454497 -127.01034386 25.95627176 -124.5 25.4375 C-122.74110104 25.05592267 -120.98272303 24.67193664 -119.22485352 24.28564453 C-115.61807352 23.49560145 -112.00912363 22.71696568 -108.39794922 21.94726562 C-101.3235547 20.43361574 -94.27466369 18.81191218 -87.22546387 17.18569946 C-84.33842243 16.52072188 -81.45004369 15.86165766 -78.56167603 15.20246887 C-69.95339005 13.2371958 -61.34981701 11.25203515 -52.75 9.25 C-51.54593506 8.97003174 -50.34187012 8.69006348 -49.10131836 8.40161133 C-42.73204696 6.91343173 -36.37319554 5.38922417 -30.0234375 3.8203125 C-28.68669748 3.49157196 -27.34994632 3.16287673 -26.01318359 2.83422852 C-23.48530307 2.2124505 -20.9603543 1.58141062 -18.43603516 0.94506836 C-17.30214355 0.66542236 -16.16825195 0.38577637 -15 0.09765625 C-14.00742188 -0.15105225 -13.01484375 -0.39976074 -11.9921875 -0.65600586 C-7.59157298 -1.47175329 -4.20371723 -1.59741255 0 0 Z " fill="#FE5E95" transform="translate(174.125,202.1875)"/>
<path d="M0 0 C7.92 0 15.84 0 24 0 C26.51116221 7.53348664 28.54473802 14.97559449 30.125 22.75 C30.28323242 23.50958008 30.44146484 24.26916016 30.60449219 25.05175781 C33.71683719 40.8875258 34.37379898 56.52680603 34.3125 72.625 C34.31034485 73.64290619 34.3081897 74.66081238 34.30596924 75.70956421 C34.25629854 90.31863523 34.00540191 104.65075853 31 119 C30.70198486 120.46228027 30.70198486 120.46228027 30.39794922 121.95410156 C20.27732806 170.3359774 -1.6391877 214.32428269 -36 250 C-36.63212402 250.65935547 -37.26424805 251.31871094 -37.91552734 251.99804688 C-47.05997479 261.48630305 -56.35734009 270.2262044 -67 278 C-68.15105017 278.85806152 -69.30209177 279.71613451 -70.453125 280.57421875 C-78.64275981 286.61177396 -87.14538276 291.99457302 -96 297 C-96.70721191 297.4021875 -97.41442383 297.804375 -98.14306641 298.21875 C-121.27845836 311.2441741 -146.44962409 319.99301461 -172.4375 325.3125 C-173.15639404 325.45985596 -173.87528809 325.60721191 -174.6159668 325.7590332 C-189.29160498 328.54840125 -203.81668838 329.34892619 -218.72729492 329.31567383 C-221.66688487 329.3125221 -224.6054558 329.33604926 -227.54492188 329.36132812 C-240.73794782 329.40411037 -254.06116039 328.81772803 -267 326 C-268 325 -268 325 -268.12025452 322.18431091 C-268.11803391 320.92522415 -268.11581329 319.66613739 -268.11352539 318.36889648 C-268.11367142 317.67624695 -268.11381744 316.98359741 -268.1139679 316.2699585 C-268.11326874 313.97030554 -268.10547628 311.67073263 -268.09765625 309.37109375 C-268.09579208 307.78068588 -268.09436817 306.19027743 -268.09336853 304.59986877 C-268.08954329 300.4060407 -268.07971295 296.21224705 -268.06866455 292.01843262 C-268.05845057 287.74211086 -268.05387094 283.46578356 -268.04882812 279.18945312 C-268.03809069 270.79295292 -268.02101419 262.39648074 -268 254 C-265.91378637 254.47592336 -263.827914 254.95334279 -261.7421875 255.43139648 C-260.58058105 255.69709946 -259.41897461 255.96280243 -258.22216797 256.23655701 C-254.76078179 257.05667906 -251.39769097 258.01346291 -248 259.0625 C-239.87055482 261.4171741 -231.78817232 262.70603679 -223.359375 263.38671875 C-222.55532227 263.45810059 -221.75126953 263.52948242 -220.92285156 263.60302734 C-219.3431003 263.73960802 -217.76151369 263.8567719 -216.17871094 263.95166016 C-210.76704853 264.42395504 -208.70144031 265.82843042 -205 270 C-200.57981401 270.72330316 -198.59563753 270.33715332 -194.6875 268.125 C-192.03399477 266.11138996 -192.03399477 266.11138996 -190 264 C-187.2421875 263.3671875 -187.2421875 263.3671875 -183.875 262.875 C-182.77929688 262.70742188 -181.68359375 262.53984375 -180.5546875 262.3671875 C-176.65746592 261.96461736 -172.9152606 261.94002883 -169 262 C-168.96261719 263.22976563 -168.92523438 264.45953125 -168.88671875 265.7265625 C-168.82102972 267.35940401 -168.75458341 268.99221518 -168.6875 270.625 C-168.66494141 271.43324219 -168.64238281 272.24148438 -168.61914062 273.07421875 C-168.39638129 278.05592742 -167.78223921 281.70438127 -165 286 C-161.2626144 288.4915904 -159.42668417 288.45793285 -155 288 C-151.61060444 285.86320715 -150.27417443 284.8225233 -149 281 C-148.91708047 279.0079697 -148.89261823 277.01326287 -148.90234375 275.01953125 C-148.90556641 273.85615234 -148.90878906 272.69277344 -148.91210938 271.49414062 C-148.92048828 270.27919922 -148.92886719 269.06425781 -148.9375 267.8125 C-148.94201172 266.58595703 -148.94652344 265.35941406 -148.95117188 264.09570312 C-148.96296935 261.06375332 -148.97943079 258.03190094 -149 255 C-147.75579353 254.4654744 -146.50429064 253.94791389 -145.25 253.4375 C-144.20585937 253.00244141 -144.20585937 253.00244141 -143.140625 252.55859375 C-140.58450038 251.89157583 -139.43641565 251.99673456 -137 253 C-135.10888672 254.56640625 -135.10888672 254.56640625 -133.1796875 256.5625 C-132.47972656 257.27664063 -131.77976562 257.99078125 -131.05859375 258.7265625 C-130.33800781 259.47679687 -129.61742187 260.22703125 -128.875 261 C-127.43702744 262.48123899 -125.99702138 263.96050745 -124.5546875 265.4375 C-123.92030762 266.09621094 -123.28592773 266.75492187 -122.63232422 267.43359375 C-120.68144798 269.30568797 -119.66408762 269.99369936 -116.94140625 270.01953125 C-112.10994607 269.66008233 -112.10994607 269.66008233 -107.9375 267.4375 C-106.54458034 263.81590888 -106.04120448 260.74678251 -107 257 C-108.99238338 253.96956814 -111.40236874 251.51712616 -114 249 C-114.78117187 248.20142578 -114.78117187 248.20142578 -115.578125 247.38671875 C-116.70155068 246.24069543 -117.84789742 245.11719038 -119 244 C-117.69599011 240.08797032 -116.33699147 239.84837111 -112.75 237.9375 C-107.23365375 234.85309135 -102.34994154 231.36665508 -97.45410156 227.37670898 C-92.9817515 223.78482632 -89.79261243 221.68963832 -84.00390625 222.2421875 C-82.52164992 222.44017365 -81.04112027 222.6514727 -79.5625 222.875 C-69.94370178 224.72276927 -69.94370178 224.72276927 -61 222 C-56.20003835 214.80005753 -56.55151666 203.80464045 -55.6328125 195.32421875 C-55.51340302 194.24956863 -55.39399353 193.17491852 -55.27096558 192.06770325 C-55.01743271 189.78583552 -54.7651896 187.50382417 -54.51416016 185.22167969 C-51.06637296 153.91040779 -51.06637296 153.91040779 -49 138.5 C-47.10740939 124.31266255 -45.48683313 110.09653857 -43.875 95.875 C-43.74657715 94.74715088 -43.6181543 93.61930176 -43.48583984 92.45727539 C-41.84052296 77.98418944 -40.32467328 63.50603762 -39 49 C-37.90486084 49.07694092 -36.80972168 49.15388184 -35.68139648 49.2331543 C-20.19614057 51.47889276 -20.19614057 51.47889276 -6 48 C-4.3000178 45.15420842 -3.6888845 42.79106019 -3.40576172 39.50683594 C-3.32582977 38.62622498 -3.24589783 37.74561401 -3.1635437 36.83831787 C-3.08637115 35.89651672 -3.00919861 34.95471558 -2.9296875 33.984375 C-2.84373322 33.01340881 -2.75777893 32.04244263 -2.66921997 31.04205322 C-2.39684656 27.94531232 -2.13578615 24.84773609 -1.875 21.75 C-1.69215129 19.64837255 -1.50856629 17.54680901 -1.32421875 15.4453125 C-0.87288286 10.2976437 -0.43685912 5.14899968 0 0 Z " fill="#2740B0" transform="translate(478,183)"/>
<path d="M0 0 C0.75183563 0.00141495 1.50367126 0.0028299 2.27828979 0.00428772 C4.6829626 0.0098916 7.08754277 0.02244468 9.4921875 0.03515625 C11.12109241 0.04017075 12.74999877 0.04473375 14.37890625 0.04882812 C18.37503577 0.05986228 22.37109592 0.07712946 26.3671875 0.09765625 C25.55677002 0.79133301 24.74635254 1.48500977 23.91137695 2.19970703 C19.65624519 7.35224077 20.6392503 14.128707 20.66015625 20.46484375 C20.64702975 21.86876562 20.63172259 23.27266864 20.61433411 24.67654419 C20.57458108 28.35581479 20.56430008 32.03459029 20.56030273 35.71405029 C20.55095274 39.47488329 20.51352772 43.2354276 20.47851562 46.99609375 C20.41403895 54.36328389 20.38071783 61.73017762 20.3671875 69.09765625 C21.26740631 69.34724091 22.16762512 69.59682556 23.09512329 69.85397339 C26.53118292 71.15998947 28.16283106 72.40662011 30.72021484 74.99658203 C31.52059174 75.79726105 32.32096863 76.59794006 33.14559937 77.42288208 C34.41157455 78.71982498 34.41157455 78.71982498 35.703125 80.04296875 C36.58247711 80.92798065 37.46182922 81.81299255 38.36782837 82.724823 C40.69308572 85.06863837 43.00940173 87.42083428 45.32165527 89.77746582 C47.68756093 92.18443988 50.06496633 94.57999659 52.44140625 96.9765625 C57.09396655 101.67317869 61.73491499 106.38103367 66.3671875 111.09765625 C71.03295394 107.20020076 75.45228894 103.15097704 79.72973633 98.83276367 C80.32251373 98.238526 80.91529114 97.64428833 81.52603149 97.03204346 C82.79951896 95.7547797 84.07185107 94.47636311 85.34311867 93.19688988 C87.35392308 91.17323078 89.36791491 89.15279225 91.38273621 87.13313293 C95.65121236 82.85328472 99.91572282 78.56949858 104.1796875 74.28515625 C109.13961506 69.30163114 114.10115291 64.31973146 119.06690025 59.34200478 C121.05322551 57.34918686 123.0365228 55.35338829 125.01972961 53.35746765 C126.23020977 52.14335716 127.44082931 50.92938562 128.65161133 49.71557617 C129.20381851 49.15820267 129.7560257 48.60082916 130.32496643 48.02656555 C135.07732287 43.27354688 135.07732287 43.27354688 139.1171875 42.72265625 C143.6425733 43.24481615 145.1342978 44.93995003 148.3671875 48.09765625 C149.80022814 50.96373754 149.67362905 52.91066408 149.3671875 56.09765625 C146.40818744 61.2401746 142.55669909 65.19292421 138.3671875 69.35644531 C137.32256348 70.40632629 137.32256348 70.40632629 136.25683594 71.47741699 C133.96527457 73.77774451 131.66651843 76.07072187 129.3671875 78.36328125 C127.76793653 79.96388003 126.16898251 81.56477555 124.5703125 83.16595459 C121.22459644 86.51461472 117.87530077 89.85964175 114.5234375 93.20214844 C110.22582878 97.48834469 105.93728543 101.78348149 101.65136719 106.08136368 C98.35390928 109.38604371 95.05170875 112.68595145 91.74804688 115.98442841 C90.16452175 117.56661897 88.58248206 119.15029765 87.00195312 120.73548126 C84.79516488 122.9473424 82.58207771 125.1527013 80.3671875 127.35644531 C79.71459961 128.01308167 79.06201172 128.66971802 78.38964844 129.34625244 C77.78411133 129.9461499 77.17857422 130.54604736 76.5546875 131.16412354 C76.03261719 131.6854398 75.51054687 132.20675606 74.97265625 132.74386978 C72.3610882 134.94603378 69.95224904 135.97798457 66.6171875 136.66015625 C59.01705291 135.34474834 52.70929017 126.56713959 47.4375 121.23046875 C46.36289017 120.15017899 46.36289017 120.15017899 45.26657104 119.04806519 C43.00597188 116.77536784 40.74868262 114.49942796 38.4921875 112.22265625 C35.49764294 109.20157775 32.49983765 106.18379034 29.5 103.16796875 C28.81358429 102.4732547 28.12716858 101.77854065 27.41995239 101.06277466 C26.78524017 100.42475922 26.15052795 99.78674377 25.49658203 99.12939453 C24.66007614 98.28503342 24.66007614 98.28503342 23.80667114 97.4236145 C22.38482592 95.99103813 22.38482592 95.99103813 20.3671875 95.09765625 C20.40521314 105.72025619 20.46452912 116.34250282 20.55109024 126.96482468 C20.59061319 131.89713632 20.62277798 136.82926814 20.63818359 141.76171875 C20.65331852 146.52112473 20.68770749 151.2800365 20.73549652 156.03922272 C20.75034305 157.85566159 20.75823039 159.672171 20.75907135 161.48867035 C20.76143298 164.03172096 20.78844605 166.57339682 20.82128906 169.11621094 C20.81374352 170.24478012 20.81374352 170.24478012 20.80604553 171.39614868 C20.87140566 174.66330328 21.03293931 176.6632615 23.0539856 179.28984833 C25.89904559 181.51331269 27.31766076 181.60312973 30.8973999 181.61663818 C32.02198105 181.63055099 33.14656219 181.64446381 34.30522156 181.65879822 C35.53448868 181.65376785 36.7637558 181.64873749 38.03027344 181.64355469 C39.32808243 181.65389236 40.62589142 181.66423004 41.96302795 181.67488098 C45.5185476 181.70275313 49.07371951 181.70614542 52.62933254 181.70516109 C56.34633113 181.7082892 60.06317286 181.7339052 63.78009033 181.75714111 C70.81710774 181.79771268 77.85403245 181.81804448 84.89114881 181.83111501 C92.90326419 181.84698119 100.91522175 181.88539514 108.92724562 181.92570829 C125.40718087 182.00812302 141.88708289 182.06220522 158.3671875 182.09765625 C158.3671875 182.42765625 158.3671875 182.75765625 158.3671875 183.09765625 C150.7771875 183.09765625 143.1871875 183.09765625 135.3671875 183.09765625 C135.1815625 188.14046875 135.1815625 188.14046875 134.9921875 193.28515625 C134.64893134 201.44395559 134.19226222 209.58628059 133.4921875 217.72265625 C133.42596191 218.59172607 133.35973633 219.4607959 133.29150391 220.35620117 C132.86637081 224.93793939 132.39052892 228.42746039 129.3671875 232.09765625 C122.60848906 236.83159693 110.95397654 234.02043918 103.1328125 233.26171875 C93.26151648 232.33600227 83.3832032 231.51618023 73.5 230.73046875 C72.36881839 230.64043862 72.36881839 230.64043862 71.21478462 230.54858971 C67.27272144 230.23503922 63.33058355 229.92244124 59.38839722 229.61044312 C51.07245073 228.95218366 42.75692378 228.28865286 34.44140625 227.625 C33.61879618 227.55937426 32.7961861 227.49374851 31.94864845 227.42613411 C17.06516436 226.23833954 2.18387758 225.02571439 -12.6953125 223.78515625 C-13.66974304 223.70420715 -14.64417358 223.62325806 -15.64813232 223.53985596 C-20.65634983 223.12337284 -25.66368832 222.69849353 -30.67025757 222.26266479 C-32.42863462 222.11482321 -34.18850927 221.98505409 -35.94848633 221.85766602 C-36.84204834 221.78733154 -37.73561035 221.71699707 -38.65625 221.64453125 C-39.36313965 221.59522461 -40.0700293 221.54591797 -40.79833984 221.49511719 C-44.30225346 220.73595145 -46.20603043 218.64888869 -48.6328125 216.09765625 C-53.06605578 207.2311697 -48.85739592 190.19196829 -48.0234375 180.55078125 C-47.8543124 178.54845238 -47.68568855 176.54608112 -47.51753235 174.54367065 C-47.07054225 169.2357325 -46.61715968 163.92835896 -46.16252518 158.62107086 C-45.69545933 153.15510414 -45.2344433 147.68862803 -44.77319336 142.22216797 C-44.22705472 135.75294724 -43.68058163 129.28375666 -43.13145447 122.81478882 C-41.7030155 105.98375047 -40.31525798 89.14982386 -38.96130371 72.31262207 C-38.52641306 66.90694317 -38.08532993 61.50189003 -37.6328125 56.09765625 C-37.49987793 54.47682129 -37.49987793 54.47682129 -37.36425781 52.82324219 C-37.28401367 51.9212207 -37.20376953 51.01919922 -37.12109375 50.08984375 C-37.05833252 49.36909668 -36.99557129 48.64834961 -36.9309082 47.90576172 C-36.47478561 45.13914095 -35.38352382 43.25237788 -33.6328125 41.09765625 C-30.58600189 39.06644918 -30.03162926 38.8510575 -26.62109375 38.90234375 C-25.86376953 38.90878906 -25.10644531 38.91523437 -24.32617188 38.921875 C-23.54048828 38.93863281 -22.75480469 38.95539062 -21.9453125 38.97265625 C-21.14802734 38.98167969 -20.35074219 38.99070313 -19.52929688 39 C-17.5636735 39.0235404 -15.59820475 39.05941078 -13.6328125 39.09765625 C-13.65375977 38.12417236 -13.67470703 37.15068848 -13.69628906 36.14770508 C-13.76889436 32.52301849 -13.81468585 28.8983957 -13.85253906 25.27319336 C-13.87260808 23.70667702 -13.89987001 22.14023516 -13.93457031 20.57397461 C-13.98330004 18.31735831 -14.0058272 16.06173542 -14.0234375 13.8046875 C-14.04408264 13.10865921 -14.06472778 12.41263092 -14.08599854 11.69551086 C-14.08764282 8.1018369 -13.71296608 6.22084344 -11.73339844 3.1784668 C-8.06454181 -0.45585039 -4.90459517 -0.03451664 0 0 Z " fill="#00D582" transform="translate(342.6328125,-0.09765625)"/>
<path d="M0 0 C1.22355698 0.00222061 2.44711395 0.00444122 3.70774841 0.00672913 C4.71746201 0.00651009 4.71746201 0.00651009 5.74757385 0.00628662 C7.98229649 0.00698573 10.21693674 0.01477799 12.4516449 0.02259827 C13.99721226 0.02446245 15.54278022 0.02588635 17.08834839 0.02688599 C21.16380941 0.03071112 25.23923502 0.04054135 29.31468201 0.05158997 C33.47035747 0.0618042 37.62603864 0.06638363 41.78172302 0.07142639 C49.94124452 0.08216363 58.10073718 0.09923998 66.26023865 0.12025452 C65.54124417 14.85279091 64.41040671 29.54348151 63.22898865 44.24525452 C63.03087151 46.72904712 62.83291718 49.21285271 62.63511658 51.69667053 C62.22291569 56.86710683 61.80928877 62.03742626 61.39451599 67.20765686 C60.86446126 73.81541377 60.33721052 80.42339063 59.81092072 87.03144836 C59.40338421 92.14630173 58.99478042 97.26106938 58.58581543 102.37580872 C58.39103026 104.81251678 58.1964772 107.24924341 58.00216675 109.68598938 C57.73048602 113.08994156 57.45746725 116.49378383 57.18406677 119.89759827 C57.10507645 120.89000015 57.02608612 121.88240204 56.94470215 122.90487671 C56.51261713 128.26494522 56.02367857 133.61352762 55.4491806 138.96032715 C55.07990537 143.1817701 55.29829981 147.39869318 55.4203949 151.62806702 C55.27016591 154.90379186 54.65855917 157.72624515 53.80149841 160.87953186 C52.73058586 165.31292625 52.26079406 169.84949077 51.69773865 174.37025452 C51.56770447 175.3857135 51.43767029 176.40117249 51.30369568 177.44740295 C50.52632502 183.62873755 49.85756802 189.79181034 49.47117615 196.01087952 C49.26023865 198.12025452 49.26023865 198.12025452 48.26023865 201.12025452 C48.89671326 201.15989319 49.53318787 201.19953186 50.18894958 201.2403717 C68.64115922 202.40286733 87.07598547 203.76601774 105.51023865 205.18275452 C106.65810852 205.27061218 107.80597839 205.35846985 108.9886322 205.44898987 C112.31365483 205.70386593 115.63853323 205.9605405 118.96336365 206.21791077 C119.95412903 206.29391006 120.94489441 206.36990936 121.96568298 206.44821167 C123.83340046 206.59378728 125.70077917 206.74379669 127.56773376 206.89884949 C129.39724451 207.0492904 131.22784455 207.18692011 133.05918884 207.31309509 C133.94505676 207.3827951 134.83092468 207.45249512 135.74363708 207.52430725 C136.92092377 207.60889442 136.92092377 207.60889442 138.12199402 207.69519043 C141.84403244 208.43509869 143.68200447 210.4098032 146.26023865 213.12025452 C147.67024528 215.94026779 147.50572315 217.99032707 147.26023865 221.12025452 C145.53891875 224.90715829 144.122762 226.64084652 140.26023865 228.12025452 C129.98525291 228.98523019 119.45179783 227.71945623 109.20555115 226.84291077 C107.60808513 226.7103306 106.01058057 226.57821406 104.41304016 226.4465332 C101.09324972 226.17174023 97.77379774 225.89327076 94.45457458 225.61170959 C90.21879223 225.25243315 85.98250069 224.89966872 81.74597359 224.54929447 C77.66981244 224.21190092 73.5939234 223.87127354 69.51805115 223.53041077 C68.75225864 223.46663805 67.98646614 223.40286533 67.1974678 223.33716011 C65.01397324 223.15473385 62.83068569 222.97000612 60.64744568 222.78456116 C58.79217758 222.62800804 58.79217758 222.62800804 56.89942932 222.46829224 C53.00608147 222.09594793 49.13871347 221.62281411 45.26023865 221.12025452 C45.16935974 222.53177795 45.16935974 222.53177795 45.0766449 223.97181702 C44.99285583 225.21705139 44.90906677 226.46228577 44.82273865 227.74525452 C44.74152771 228.97502014 44.66031677 230.20478577 44.5766449 231.47181702 C44.29359921 234.73557839 43.84984912 237.89969311 43.26023865 241.12025452 C43.84692322 241.10575256 44.43360779 241.09125061 45.03807068 241.0763092 C53.32182312 240.96761892 61.51886204 241.51050139 69.76902771 242.18226624 C71.35663107 242.30839651 72.94489421 242.42646228 74.53367615 242.53675842 C76.85829565 242.69824326 79.18000615 242.8831126 81.50242615 243.07337952 C82.2076944 243.11835571 82.91296265 243.16333191 83.63960266 243.20967102 C88.33260408 243.63150586 90.91890884 244.80797975 94.26023865 248.12025452 C95.86871047 251.33719815 95.87333013 254.64162673 95.26023865 258.12025452 C93.08449449 260.8113065 91.34958009 262.5755838 88.26023865 264.12025452 C79.05642298 264.67642337 69.86906197 263.79544633 60.71751404 262.89344788 C58.53776883 262.67931923 56.35717242 262.47634885 54.17625427 262.27455139 C43.54001148 261.26014093 43.54001148 261.26014093 41.26023865 260.12025452 C41.1622699 261.27654358 41.06430115 262.43283264 40.96336365 263.62416077 C40.21571943 272.06925973 39.37676618 280.48740658 38.23680115 288.88978577 C38.14676819 289.55863297 38.05673523 290.22748016 37.963974 290.91659546 C37.51668154 294.22699149 37.05756553 297.53475394 36.58152771 300.84120178 C34.32867541 315.57473765 34.32867541 315.57473765 36.26023865 330.12025452 C38.26040331 331.32907548 38.26040331 331.32907548 40.26023865 332.12025452 C39.68169128 332.0649054 39.10314392 332.00955627 38.50706482 331.95252991 C36.78818691 331.7881839 35.06927087 331.62423638 33.35032654 331.46058655 C31.41050383 331.27490918 29.4708866 331.0870729 27.53147888 330.89710999 C22.62877771 330.42055633 17.74103147 330.02610411 12.82273865 329.74525452 C8.40754785 329.34578487 5.62547204 328.14033577 2.26023865 325.12025452 C-0.23158672 321.51256123 0.09253638 318.00347194 0.38523865 313.80775452 C0.43527039 313.02182922 0.48530212 312.23590393 0.53684998 311.42616272 C1.15759297 302.89436823 2.32508083 294.43367366 3.46580505 285.95887756 C5.26213431 272.53485725 6.75946085 259.08005378 8.26023865 245.62025452 C9.93867387 230.60819827 11.62900811 215.60061006 13.57273865 200.62025452 C13.73193787 199.3885553 13.89113708 198.15685608 14.05516052 196.88783264 C14.66530847 192.26199734 15.30429251 187.68898575 16.26023865 183.12025452 C14.41559021 183.20726624 14.41559021 183.20726624 12.53367615 183.29603577 C10.90090177 183.34295457 9.26808612 183.38845245 7.63523865 183.43275452 C6.42287537 183.49559631 6.42287537 183.49559631 5.1860199 183.55970764 C0.94595103 183.6458879 -1.87326757 183.49023962 -5.26319885 180.78822327 C-9.02654412 176.73402009 -8.86957094 173.72514851 -8.8936615 168.37724304 C-8.89804375 167.68808725 -8.90242601 166.99893145 -8.90694106 166.28889215 C-8.92032005 163.97437605 -8.92650581 161.65989803 -8.93263245 159.34535217 C-8.94053396 157.68801705 -8.94880294 156.03068365 -8.95741272 154.37335205 C-8.98362132 148.92702373 -8.99893652 143.48068776 -9.01319885 138.03431702 C-9.0185585 136.16006337 -9.02393601 134.28580978 -9.02933121 132.41155624 C-9.05095583 124.61715422 -9.06969394 116.82275427 -9.0809536 109.02832985 C-9.09720339 97.85284566 -9.13041081 86.67770855 -9.18735445 75.50235522 C-9.22602099 67.64665518 -9.24558223 59.79104813 -9.25087416 51.93525541 C-9.25453137 47.24178588 -9.26659213 42.54868664 -9.2989769 37.85531998 C-9.32900082 33.44096049 -9.33538986 29.02719647 -9.32359314 24.61275673 C-9.32337194 22.99259919 -9.33171501 21.37241446 -9.34924698 19.75235176 C-9.37188655 17.53992604 -9.3636712 15.32966937 -9.34776306 13.11723328 C-9.35107321 11.87947458 -9.35438335 10.64171589 -9.35779381 9.36644936 C-8.57227039 5.24051381 -6.90090465 3.78138611 -3.73976135 1.12025452 C-2.73976135 0.12025452 -2.73976135 0.12025452 0 0 Z " fill="#FEB409" transform="translate(238.73976135253906,59.87974548339844)"/>
<path d="M0 0 C1.01790619 0.00215515 2.03581238 0.0043103 3.08456421 0.00653076 C53.10318718 0.17659359 53.10318718 0.17659359 73.375 10.3125 C73.375 19.8825 73.375 29.4525 73.375 39.3125 C65.125 39.5625 65.125 39.5625 62.54589844 39.61035156 C58.8200727 39.77802255 56.9124511 39.89673594 53.890625 42.234375 C51.22378613 45.8909685 50.92259613 48.9634617 50.3125 53.4375 C50.13589844 54.71882813 49.95929688 56.00015625 49.77734375 57.3203125 C49.64457031 58.30773438 49.51179687 59.29515625 49.375 60.3125 C48.0949987 60.31463753 48.0949987 60.31463753 46.78913879 60.31681824 C38.74069237 60.33466001 30.69279512 60.37630804 22.64461231 60.44459057 C18.50706062 60.47885763 14.36987804 60.50397002 10.23217773 60.50805664 C6.23773589 60.51234034 2.24412663 60.54080757 -1.75005531 60.58593178 C-3.27259786 60.59890474 -4.79524006 60.60321512 -6.31783104 60.59865379 C-8.4539272 60.59374567 -10.58759181 60.61984153 -12.72338867 60.65307617 C-14.54540047 60.66306892 -14.54540047 60.66306892 -16.40422058 60.67326355 C-20.54488299 61.49507156 -22.03971798 63.03826814 -24.625 66.3125 C-25.39919007 69.77754717 -25.39919007 69.77754717 -25.33203125 73.58203125 C-25.35471321 74.60353523 -25.35471321 74.60353523 -25.37785339 75.64567566 C-25.42060078 77.80579063 -25.42955435 79.96450493 -25.4375 82.125 C-25.46065489 83.59574002 -25.48602231 85.06644698 -25.51367188 86.53710938 C-25.5763916 90.12887971 -25.60883125 93.72018404 -25.625 97.3125 C-28.39441606 98.15080973 -31.16535069 98.98332034 -33.9375 99.8125 C-34.72318359 100.05097656 -35.50886719 100.28945312 -36.31835938 100.53515625 C-37.07568359 100.76074219 -37.83300781 100.98632812 -38.61328125 101.21875 C-39.30977783 101.42822266 -40.00627441 101.63769531 -40.72387695 101.85351562 C-42.625 102.3125 -42.625 102.3125 -45.625 102.3125 C-45.6343457 101.24290039 -45.64369141 100.17330078 -45.65332031 99.07128906 C-45.69323512 95.0975603 -45.75899721 91.12460456 -45.83251953 87.15136719 C-45.86072067 85.43271831 -45.88193954 83.71393995 -45.89599609 81.99511719 C-45.91743833 79.52211253 -45.96409156 77.05066325 -46.015625 74.578125 C-46.01685364 73.81131409 -46.01808228 73.04450317 -46.01934814 72.25445557 C-46.11539261 68.74534999 -46.33452616 66.69770356 -48.47558594 63.85839844 C-51.71216435 61.53059125 -54.32549812 61.18492544 -58.19975281 61.15428162 C-59.1378479 61.1444928 -60.07594299 61.13470398 -61.04246521 61.12461853 C-62.58318443 61.11598534 -62.58318443 61.11598534 -64.1550293 61.10717773 C-65.77965591 61.09232834 -65.77965591 61.09232834 -67.43710327 61.07717896 C-71.0244527 61.04553945 -74.61181539 61.02079674 -78.19921875 60.99609375 C-80.68358203 60.97552635 -83.1679418 60.95452993 -85.65229797 60.93312073 C-91.52768324 60.88352732 -97.40308945 60.83826769 -103.27852517 60.79509836 C-110.62387146 60.74086417 -117.9691583 60.67991788 -125.31445312 60.61914062 C-138.41792909 60.51153214 -151.52144443 60.40990657 -164.625 60.3125 C-134.66167998 30.02001607 -90.21651607 12.39827204 -49.1875 4 C-48.46860596 3.85264404 -47.74971191 3.70528809 -47.0090332 3.5534668 C-31.36274391 0.57960912 -15.88931954 -0.06050362 0 0 Z " fill="#2740B0" transform="translate(255.625,-0.3125)"/>
<path d="M0 0 C1.24185204 3.97392653 0.68188531 6.73973636 -0.42138672 10.69335938 C-1.53738058 15.14226655 -1.99634483 19.70434838 -2.5625 24.25 C-2.69253418 25.26545898 -2.82256836 26.28091797 -2.95654297 27.32714844 C-3.73391363 33.50848303 -4.40267063 39.67155583 -4.7890625 45.890625 C-5 48 -5 48 -6 51 C-5.36352539 51.03963867 -4.72705078 51.07927734 -4.07128906 51.12011719 C14.38092057 52.28261282 32.81574683 53.64576322 51.25 55.0625 C52.39786987 55.15035767 53.54573975 55.23821533 54.72839355 55.32873535 C58.05341619 55.58361141 61.37829459 55.84028598 64.703125 56.09765625 C66.18927307 56.2116552 66.18927307 56.2116552 67.70544434 56.32795715 C69.57316181 56.47353277 71.44054052 56.62354218 73.30749512 56.77859497 C75.13700586 56.92903588 76.96760591 57.0666656 78.7989502 57.19284058 C79.68481812 57.26254059 80.57068604 57.3322406 81.48339844 57.40405273 C82.66068512 57.48863991 82.66068512 57.48863991 83.86175537 57.57493591 C87.58379379 58.31484417 89.42176582 60.28954868 92 63 C93.41000664 65.82001327 93.24548451 67.87007255 93 71 C91.2786801 74.78690377 89.86252336 76.52059201 86 78 C75.72501426 78.86497567 65.19155919 77.59920172 54.9453125 76.72265625 C53.34784648 76.59007609 51.75034192 76.45795954 50.15280151 76.32627869 C46.83301108 76.05148571 43.51355909 75.77301624 40.19433594 75.49145508 C35.95855358 75.13217864 31.72226204 74.7794142 27.48573494 74.42903996 C23.40957379 74.0916464 19.33368475 73.75101902 15.2578125 73.41015625 C14.49202 73.34638353 13.72622749 73.28261082 12.93722916 73.21690559 C10.7537346 73.03447933 8.57044704 72.8497516 6.38720703 72.66430664 C4.53193893 72.50775352 4.53193893 72.50775352 2.63919067 72.34803772 C-1.25415718 71.97569342 -5.12152518 71.50255959 -9 71 C-9.09087891 72.41152344 -9.09087891 72.41152344 -9.18359375 73.8515625 C-9.26738281 75.09679687 -9.35117187 76.34203125 -9.4375 77.625 C-9.51871094 78.85476563 -9.59992188 80.08453125 -9.68359375 81.3515625 C-9.96663944 84.61532388 -10.41038953 87.77943859 -11 91 C-10.41331543 90.98549805 -9.82663086 90.97099609 -9.22216797 90.95605469 C-0.93841553 90.8473644 7.25862339 91.39024688 15.50878906 92.06201172 C17.09639242 92.18814199 18.68465557 92.30620777 20.2734375 92.41650391 C22.598057 92.57798874 24.9197675 92.76285808 27.2421875 92.953125 C27.94745575 92.9981012 28.652724 93.04307739 29.37936401 93.0894165 C34.07236544 93.51125134 36.65867019 94.68772524 40 98 C41.60847182 101.21694364 41.61309149 104.52137222 41 108 C38.82425584 110.69105198 37.08934144 112.45532928 34 114 C24.79618434 114.55616885 15.60882332 113.67519182 6.45727539 112.77319336 C4.27753018 112.55906472 2.09693378 112.35609433 -0.08398438 112.15429688 C-10.72022716 111.13988642 -10.72022716 111.13988642 -13 110 C-13.14695312 111.73443359 -13.14695312 111.73443359 -13.296875 113.50390625 C-14.04451921 121.94900521 -14.88347247 130.36715207 -16.0234375 138.76953125 C-16.11347046 139.43837845 -16.20350342 140.10722565 -16.29626465 140.79634094 C-16.74355711 144.10673697 -17.20267312 147.41449942 -17.67871094 150.72094727 C-19.93156324 165.45448313 -19.93156324 165.45448313 -18 180 C-15.99983534 181.20882096 -15.99983534 181.20882096 -14 182 C-14.57854736 181.94465088 -15.15709473 181.88930176 -15.75317383 181.83227539 C-17.47205174 181.66792939 -19.19096778 181.50398187 -20.90991211 181.34033203 C-22.84973481 181.15465466 -24.78935205 180.96681838 -26.72875977 180.77685547 C-31.63146094 180.30030181 -36.51920718 179.90584959 -41.4375 179.625 C-45.8526908 179.22553036 -48.63476661 178.02008125 -52 175 C-54.49182536 171.39230671 -54.16770226 167.88321743 -53.875 163.6875 C-53.82496826 162.90157471 -53.77493652 162.11564941 -53.72338867 161.3059082 C-53.10264567 152.77411372 -51.93515781 144.31341915 -50.79443359 135.83862305 C-48.99810434 122.41460274 -47.5007778 108.95979926 -46 95.5 C-44.32156478 80.48794375 -42.63123054 65.48035554 -40.6875 50.5 C-40.52830078 49.26830078 -40.36910156 48.03660156 -40.20507812 46.76757812 C-39.59337416 42.12994589 -38.91824642 37.59123212 -38 33 C-43.94 33 -49.88 33 -56 33 C-56 32.67 -56 32.34 -56 32 C-50.06 32 -44.12 32 -38 32 C-37.87625 30.535625 -37.7525 29.07125 -37.625 27.5625 C-37.52960938 26.56992188 -37.43421875 25.57734375 -37.3359375 24.5546875 C-37.15813121 22.67324881 -36.98373922 20.79133616 -36.83691406 18.90722656 C-36.6617008 16.66509073 -36.45735359 14.42687022 -36.25 12.1875 C-36.20053223 11.47086182 -36.15106445 10.75422363 -36.10009766 10.01586914 C-35.55306275 4.53723168 -33.89327248 1.89924376 -30 -2 C-22.74871692 -5.62564154 -7.59926427 -1.31993966 0 0 Z " fill="#FDC043" transform="translate(293,210)"/>
<path d="M0 0 C0.78375 0.639375 1.5675 1.27875 2.375 1.9375 C6.12120626 4.88094778 7.88787104 5.12896545 12.59341431 5.15821838 C14.37713188 5.17290161 14.37713188 5.17290161 16.19688416 5.18788147 C18.16377953 5.19651466 18.16377953 5.19651466 20.17041016 5.20532227 C21.55985304 5.21489851 22.94929299 5.22490844 24.33872986 5.23532104 C28.11739783 5.26240367 31.89607834 5.28339501 35.67478991 5.30332303 C39.62130052 5.32516191 43.56777236 5.35256084 47.51425171 5.37937927 C54.9904746 5.42933458 62.46671899 5.47426286 69.94298398 5.51740164 C78.45317212 5.56674978 86.96332135 5.62167688 95.47347188 5.67708123 C112.98227864 5.79094484 130.4911215 5.89777432 148 6 C147.84345847 9.69454938 147.68529818 13.38902779 147.52685547 17.08349609 C147.48276047 18.12465073 147.43866547 19.16580536 147.39323425 20.23851013 C147.10024088 27.04685306 146.75913445 33.83864889 146.125 40.625 C146.02638672 41.90890625 146.02638672 41.90890625 145.92578125 43.21875 C145.50334821 47.81539425 145.03300065 51.31807828 142 55 C135.25720735 59.72279992 123.65695104 56.92937177 115.8515625 56.171875 C105.69381293 55.219153 95.52900644 54.3759866 85.359375 53.5625 C84.5712933 53.49943413 83.78321159 53.43636826 82.97124863 53.3713913 C78.06019015 52.97878511 73.14898052 52.58809566 68.23773193 52.19787598 C64.93483742 51.93516139 61.63203524 51.67129797 58.32924652 51.40725708 C56.69402058 51.27666029 55.0587718 51.14634898 53.42350006 51.0163269 C49.42641496 50.69845938 45.4296626 50.37727085 41.43347168 50.04833984 C34.28771502 49.46474143 27.15136568 48.93333362 19.99023438 48.578125 C18.78022766 48.51052979 17.57022095 48.44293457 16.32354736 48.37329102 C14.10820516 48.25339588 11.89148506 48.15587697 9.67401123 48.08569336 C2.64383087 47.68229949 2.64383087 47.68229949 -0.65185547 44.18969727 C-1.81911997 41.42796045 -2.49688356 39.72033909 -2.4609375 36.77734375 C-2.45835937 36.00100586 -2.45578125 35.22466797 -2.453125 34.42480469 C-2.42734375 33.60399414 -2.4015625 32.78318359 -2.375 31.9375 C-2.36210937 31.07930664 -2.34921875 30.22111328 -2.3359375 29.33691406 C-2.10861789 19.51599644 -1.09705032 9.75591181 0 0 Z " fill="#00B872" transform="translate(330,177)"/>
<path d="M0 0 C1.34888732 0.00015905 2.69778075 0.00584927 4.04663086 0.01586914 C5.10991859 0.01799156 5.10991859 0.01799156 6.19468689 0.02015686 C8.46699173 0.02577096 10.73919936 0.03832576 13.01147461 0.05102539 C14.54858257 0.05603858 16.08569206 0.0606018 17.62280273 0.06469727 C21.39823103 0.07574497 25.17358632 0.09301898 28.94897461 0.11352539 C28.14459961 0.87665039 27.34022461 1.63977539 26.51147461 2.42602539 C22.8930085 6.22100205 22.82278206 8.83576674 22.80421448 13.88293457 C22.79731598 15.08594711 22.79041748 16.28895966 22.78330994 17.52842712 C22.78059536 18.86343369 22.77795819 20.19844041 22.77539062 21.53344727 C22.76908509 22.93787338 22.76231928 24.3422975 22.75512695 25.74671936 C22.74045901 28.77182092 22.72873361 31.79691477 22.71917915 34.82203674 C22.7037342 39.60344065 22.67978636 44.38477824 22.65428162 49.1661377 C22.58305505 62.76265274 22.52324147 76.35920535 22.47216797 89.95581055 C22.44388786 97.46443847 22.40852199 104.97299999 22.36551422 112.48155832 C22.33870774 117.23670579 22.32082385 121.99177816 22.30947697 126.74698639 C22.30036533 129.70259794 22.28301079 132.658118 22.26329803 135.61367607 C22.25581108 136.98630272 22.25174079 138.35895281 22.25130272 139.73159981 C22.25022332 141.60246607 22.23583135 143.47331068 22.22071838 145.34411621 C22.21648644 146.39198555 22.21225451 147.43985489 22.20789433 148.51947784 C21.94897461 151.11352539 21.94897461 151.11352539 19.94897461 154.11352539 C19.41642992 156.54164913 19.41642992 156.54164913 19.13256836 159.26196289 C19.00817383 160.26743164 18.8837793 161.27290039 18.75561523 162.30883789 C18.57289063 163.8827832 18.57289063 163.8827832 18.38647461 165.48852539 C18.13663217 167.55901455 17.88537822 169.62933397 17.63256836 171.69946289 C17.52485107 172.61775879 17.41713379 173.53605469 17.30615234 174.48217773 C16.95694813 177.05478402 16.48615976 179.57415683 15.94897461 182.11352539 C12.69927691 182.22990575 9.45011631 182.3008312 6.19897461 182.36352539 C5.27858398 182.39704102 4.35819336 182.43055664 3.40991211 182.46508789 C-3.41572632 182.56401019 -3.41572632 182.56401019 -6.62915039 180.28540039 C-9.23010491 176.31251382 -9.18401061 173.01345588 -9.20492554 168.37051392 C-9.20930779 167.68135812 -9.21369004 166.99220233 -9.21820509 166.28216302 C-9.23158409 163.96764693 -9.23776985 161.6531689 -9.24389648 159.33862305 C-9.25179799 157.68128792 -9.26006698 156.02395452 -9.26867676 154.36662292 C-9.29488536 148.92029461 -9.31020056 143.47395863 -9.32446289 138.02758789 C-9.32982254 136.15333425 -9.33520005 134.27908066 -9.34059525 132.40482712 C-9.36221987 124.6104251 -9.38095798 116.81602515 -9.39221764 109.02160072 C-9.40846742 97.84611653 -9.44167485 86.67097943 -9.49861848 75.49562609 C-9.53728502 67.63992606 -9.55684627 59.784319 -9.5621382 51.92852628 C-9.56579541 47.23505675 -9.57785617 42.54195751 -9.61024094 37.84859085 C-9.64026486 33.43423136 -9.6466539 29.02046734 -9.63485718 24.6060276 C-9.63463598 22.98587006 -9.64297905 21.36568533 -9.66051102 19.74562263 C-9.68315059 17.53319692 -9.67493524 15.32294024 -9.6590271 13.11050415 C-9.66233725 11.87274546 -9.66564739 10.63498676 -9.66905785 9.35972023 C-8.88353442 5.23378468 -7.21216868 3.77465698 -4.05102539 1.11352539 C-3.05102539 0.11352539 -3.05102539 0.11352539 0 0 Z " fill="#FEA900" transform="translate(239.051025390625,59.886474609375)"/>
<path d="M0 0 C0.33 0 0.66 0 1 0 C1.02337556 23.05287906 1.04100206 46.10575616 1.05181217 69.15864468 C1.05696523 79.86284723 1.06398906 90.56704241 1.07543945 101.27124023 C1.08541654 110.60260605 1.09186064 119.93396653 1.09408849 129.26533753 C1.09539046 134.20475015 1.09844378 139.1441475 1.10573006 144.08355522 C1.11253799 148.73656712 1.11460726 153.38955752 1.11310768 158.04257393 C1.11338187 159.74649294 1.11535859 161.4504127 1.11920547 163.15432739 C1.13640031 171.16623839 1.1167913 179.04778188 0 187 C-0.21772994 190.41760926 -0.27382629 193.82608764 -0.3125 197.25 C-0.34150391 198.12140625 -0.37050781 198.9928125 -0.40039062 199.890625 C-0.44336491 204.22772228 -0.40032086 206.38364525 2.01953125 210.109375 C2.67308594 210.73328125 3.32664062 211.3571875 4 212 C-3.84749382 212.2577644 -11.61638346 211.94776854 -19.4375 211.3125 C-20.28924805 211.25916504 -21.14099609 211.20583008 -22.01855469 211.15087891 C-27.92936555 210.61385017 -30.85006611 209.28146904 -35 205 C-39.43324328 196.13351345 -35.22458342 179.09431204 -34.390625 169.453125 C-34.2214999 167.45079613 -34.05287605 165.44842487 -33.88471985 163.4460144 C-33.43772975 158.13807625 -32.98434718 152.83070271 -32.52971268 147.52341461 C-32.06264683 142.05744789 -31.6016308 136.59097178 -31.14038086 131.12451172 C-30.59424222 124.65529099 -30.04776913 118.18610041 -29.49864197 111.71713257 C-28.070203 94.88609422 -26.68244548 78.05216761 -25.32849121 61.21496582 C-24.89360056 55.80928692 -24.45251743 50.40423378 -24 45 C-23.86706543 43.37916504 -23.86706543 43.37916504 -23.73144531 41.72558594 C-23.65120117 40.82356445 -23.57095703 39.92154297 -23.48828125 38.9921875 C-23.42552002 38.27144043 -23.36275879 37.55069336 -23.2980957 36.80810547 C-22.84197311 34.0414847 -21.75071132 32.15472163 -20 30 C-16.95318939 27.96879293 -16.39881676 27.75340125 -12.98828125 27.8046875 C-11.96408081 27.81218018 -11.96408081 27.81218018 -10.91918945 27.81982422 C-10.05898193 27.83803223 -9.19877441 27.85624023 -8.3125 27.875 C-4.1978125 27.936875 -4.1978125 27.936875 0 28 C0 18.76 0 9.52 0 0 Z " fill="#029B5D" transform="translate(329,11)"/>
<path d="M0 0 C2.92937654 1.81310142 5.43647949 3.87295899 7 7 C7.59253501 12.21430806 6.12737468 15.01466378 3 19 C0.75555142 21.51069497 -1.61174793 23.88535301 -4 26.25878906 C-4.69641602 26.95870972 -5.39283203 27.65863037 -6.11035156 28.37976074 C-8.40191293 30.68008826 -10.70066907 32.97306562 -13 35.265625 C-14.59925097 36.86622378 -16.19820499 38.4671193 -17.796875 40.06829834 C-21.14259106 43.41695847 -24.49188673 46.7619855 -27.84375 50.10449219 C-32.14135872 54.39068844 -36.42990207 58.68582524 -40.71582031 62.98370743 C-44.01327822 66.28838746 -47.31547875 69.5882952 -50.61914062 72.88677216 C-52.20266575 74.46896272 -53.78470544 76.0526414 -55.36523438 77.63782501 C-57.57202262 79.84968615 -59.78510979 82.05504505 -62 84.25878906 C-62.65258789 84.91542542 -63.30517578 85.57206177 -63.97753906 86.24859619 C-64.58307617 86.84849365 -65.18861328 87.44839111 -65.8125 88.06646729 C-66.33457031 88.58778355 -66.85664063 89.10909981 -67.39453125 89.64621353 C-70.0060993 91.84837753 -72.41493846 92.88032832 -75.75 93.5625 C-84.1584645 92.10718884 -91.56877911 81.57682749 -97.37109375 75.76171875 C-98.34360956 74.78987816 -99.31627364 73.81818592 -100.28907776 72.84663391 C-102.31014804 70.82702612 -104.329428 68.80565033 -106.34741211 66.78295898 C-108.93538459 64.18924389 -111.52788364 61.60010667 -114.12170315 59.01224041 C-116.12316918 57.01438021 -118.12225709 55.01415418 -120.12062263 53.01319313 C-121.54020078 51.59262455 -122.96179148 50.17406804 -124.38340759 48.75553894 C-125.23842361 47.89737076 -126.09343964 47.03920258 -126.97436523 46.1550293 C-128.10732277 45.02087837 -128.10732277 45.02087837 -129.26316833 43.86381531 C-132.1416498 40.77488163 -132.40886177 38.25683041 -132.33984375 34.0390625 C-132 32 -132 32 -129.9375 29.0625 C-126.38459775 26.56790906 -124.34095695 25.92384286 -120 26 C-114.14373225 29.20641651 -109.75848716 33.98612876 -105.1015625 38.703125 C-104.26660248 39.54091492 -103.43164246 40.37870483 -102.57138062 41.24188232 C-99.91783717 43.90657916 -97.27135085 46.57816186 -94.625 49.25 C-92.82207652 51.0629595 -91.01869609 52.8754647 -89.21484375 54.6875 C-84.80458888 59.11975102 -80.40010039 63.55766922 -76 68 C-71.33423356 64.10254451 -66.91489856 60.05332079 -62.63745117 55.73510742 C-62.04467377 55.14086975 -61.45189636 54.54663208 -60.84115601 53.93438721 C-59.56766854 52.65712345 -58.29533643 51.37870686 -57.02406883 50.09923363 C-55.01326442 48.07557453 -52.99927259 46.055136 -50.98445129 44.03547668 C-46.71597514 39.75562847 -42.45146468 35.47184233 -38.1875 31.1875 C-33.22757244 26.20397489 -28.26603459 21.22207521 -23.30028725 16.24434853 C-21.31396199 14.25153061 -19.3306647 12.25573204 -17.34745789 10.2598114 C-16.13697773 9.04570091 -14.92635819 7.83172937 -13.71557617 6.61791992 C-12.8872654 5.78185966 -12.8872654 5.78185966 -12.04222107 4.9289093 C-7.94492377 0.83104106 -5.91269954 -0.68223456 0 0 Z " fill="#007E4B" transform="translate(485,43)"/>
<path d="M0 0 C9.36662244 4.7539139 15.30358136 10.15581037 19.29760742 19.84985352 C19.71010742 20.75735352 20.12260742 21.66485352 20.54760742 22.59985352 C22.64827054 31.70272704 21.80193598 40.62194669 17.29760742 48.84985352 C13.74293901 53.63213037 9.9810384 58.09664161 4.73510742 61.03735352 C1.94453942 62.67058968 1.94453942 62.67058968 1.79760742 66.03735352 C2.1668888 68.85312405 2.63839849 71.41888107 3.29760742 74.16235352 C4.45586409 79.06396143 5.01787532 83.8349883 4.29760742 88.84985352 C2.67260742 91.47485352 2.67260742 91.47485352 0.29760742 92.84985352 C-2.97519439 93.32713711 -4.86775701 93.30682726 -7.78344727 91.71044922 C-10.37643591 89.1963059 -10.68081714 87.16268722 -11.40551758 83.64282227 C-11.66333008 82.4162793 -11.92114258 81.18973633 -12.18676758 79.92602539 C-12.43942383 78.64276367 -12.69208008 77.35950195 -12.95239258 76.03735352 C-13.22051758 74.76569336 -13.48864258 73.4940332 -13.76489258 72.18383789 C-16.72003064 57.79261708 -16.72003064 57.79261708 -14.32739258 53.22485352 C-11.69540337 50.84352994 -10.03827461 50.09779589 -6.76489258 48.91235352 C-1.01887826 46.82212445 1.3537604 44.24124619 4.39916992 38.92797852 C6.24796982 34.65162397 6.00159952 30.01510489 4.57495117 25.62719727 C2.15043545 20.37571585 -0.85546273 17.47667057 -5.88989258 14.59985352 C-11.18595037 13.18757144 -16.13732355 12.70719604 -21.24536133 14.98266602 C-26.05270165 17.97843111 -28.58636996 20.47541569 -30.70239258 25.84985352 C-31.08359648 29.45323354 -31.14007536 32.98618601 -31.19848633 36.60766602 C-31.79036416 40.4158722 -32.62756763 41.59461518 -35.70239258 43.84985352 C-39.51562831 44.39460148 -41.68162002 44.56695538 -44.88208008 42.31860352 C-47.3742216 38.93870343 -47.38861965 35.90022544 -47.32739258 31.84985352 C-47.31828857 31.09454346 -47.30918457 30.3392334 -47.29980469 29.56103516 C-46.91250866 20.03031697 -43.25088572 12.88937477 -36.32739258 6.34985352 C-25.9454824 -2.08544851 -12.55960504 -5.66966969 0 0 Z " fill="#FFF1F3" transform="translate(115.702392578125,249.150146484375)"/>
<path d="M0 0 C0.95430908 0.04674866 1.90861816 0.09349731 2.8918457 0.1416626 C16.2236716 0.84052082 29.53713246 1.8421341 42.8442688 2.90428925 C46.95585612 3.23244174 51.06769405 3.55136492 55.18164062 3.84863281 C59.22874344 4.14117213 63.27358237 4.45561506 67.31777954 4.78583527 C68.84174323 4.90665398 70.36632886 5.01989497 71.89144897 5.12511444 C74.01194548 5.27299167 76.12836159 5.44902944 78.24609375 5.63183594 C79.44548584 5.72430603 80.64487793 5.81677612 81.88061523 5.91204834 C86.19961938 6.98605984 88.01279398 8.64731469 91.1875 11.734375 C92.59750664 14.55438827 92.43298451 16.60444755 92.1875 19.734375 C90.46622543 23.52117904 89.05010076 25.25525951 85.1875 26.734375 C74.92786365 27.59324274 64.40173107 26.34894513 54.16796875 25.4921875 C52.5728864 25.36214186 50.97777778 25.23241816 49.38264465 25.10299683 C46.0670324 24.83265257 42.75179342 24.55820108 39.43676758 24.28076172 C35.21028083 23.92741411 30.98299437 23.58493129 26.75536633 23.24554634 C23.47171074 22.98065775 20.1885671 22.70980781 16.90554237 22.43722153 C15.34733662 22.30858928 13.78897658 22.18181071 12.23045921 22.05701065 C-8.23425995 20.41023103 -8.23425995 20.41023103 -13.3125 17.109375 C-15.44173603 13.73808461 -16.28761951 10.72691157 -15.8125 6.734375 C-11.91366831 -0.40324994 -7.39938955 -0.37907395 0 0 Z " fill="#FF9501" transform="translate(293.8125,261.265625)"/>
<path d="M0 0 C1.33241226 -0.01007584 1.33241226 -0.01007584 2.69174194 -0.02035522 C5.62804763 -0.03935224 8.56412496 -0.04326028 11.50048828 -0.04541016 C13.54306126 -0.05183686 15.58563331 -0.05856513 17.62820435 -0.06558228 C21.91036107 -0.07755928 26.19243709 -0.08126266 30.47460938 -0.08007812 C35.95806313 -0.07987491 41.44099879 -0.10717841 46.92432976 -0.14162254 C51.14342621 -0.16387476 55.36239765 -0.16791618 59.58154678 -0.16685867 C61.60293488 -0.1692171 63.6243263 -0.17805423 65.64565659 -0.19352341 C68.47507621 -0.21314933 71.30337429 -0.20735865 74.1328125 -0.1953125 C75.38143066 -0.21217102 75.38143066 -0.21217102 76.65527344 -0.22937012 C81.96050676 -0.17205975 84.99951612 0.75262277 89.19580078 4.29052734 C91.33078853 7.49300897 91.46974617 8.10053428 91.13330078 11.72802734 C91.08044922 12.48986328 91.02759766 13.25169922 90.97314453 14.03662109 C89.80783699 17.41542737 88.22341734 18.40222761 85.19580078 20.29052734 C82.09444246 20.87326291 79.04341652 20.83734518 75.89501953 20.80810547 C74.96597809 20.81511475 74.03693665 20.82212402 73.07974243 20.8293457 C70.01395632 20.84692646 66.94909601 20.83530243 63.88330078 20.82177734 C61.75007958 20.82447223 59.61685958 20.82835462 57.48364258 20.83337402 C53.01485488 20.83926919 48.54638719 20.83070529 44.07763672 20.81201172 C38.35081001 20.78922243 32.62473316 20.80234537 26.89793396 20.82630157 C22.49355423 20.84075888 18.08935214 20.83615381 13.68496704 20.82579041 C11.57345491 20.82312295 9.46192662 20.82639354 7.35043335 20.83570862 C4.39871529 20.84587284 1.44820983 20.83037442 -1.50341797 20.80810547 C-2.81117691 20.82025085 -2.81117691 20.82025085 -4.14535522 20.8326416 C-8.22329926 20.77567358 -10.29879335 20.6069357 -13.83251953 18.39465332 C-16.59562585 15.44593715 -16.77553255 13.39273102 -17.00732422 9.47802734 C-16.69179136 6.07998112 -15.30192266 4.51822663 -12.80419922 2.29052734 C-8.90987252 -0.4227019 -4.55632287 -0.00493714 0 0 Z " fill="#FF9FC1" transform="translate(75.80419921875,132.70947265625)"/>
<path d="M0 0 C1.33241226 -0.01007584 1.33241226 -0.01007584 2.69174194 -0.02035522 C5.62804763 -0.03935224 8.56412496 -0.04326028 11.50048828 -0.04541016 C13.54306126 -0.05183686 15.58563331 -0.05856513 17.62820435 -0.06558228 C21.91036107 -0.07755928 26.19243709 -0.08126266 30.47460938 -0.08007812 C35.95806313 -0.07987491 41.44099879 -0.10717841 46.92432976 -0.14162254 C51.14342621 -0.16387476 55.36239765 -0.16791618 59.58154678 -0.16685867 C61.60293488 -0.1692171 63.6243263 -0.17805423 65.64565659 -0.19352341 C68.47507621 -0.21314933 71.30337429 -0.20735865 74.1328125 -0.1953125 C75.38143066 -0.21217102 75.38143066 -0.21217102 76.65527344 -0.22937012 C81.96050676 -0.17205975 84.99951612 0.75262277 89.19580078 4.29052734 C91.33078853 7.49300897 91.46974617 8.10053428 91.13330078 11.72802734 C91.08044922 12.48986328 91.02759766 13.25169922 90.97314453 14.03662109 C89.80783699 17.41542737 88.22341734 18.40222761 85.19580078 20.29052734 C82.09444246 20.87326291 79.04341652 20.83734518 75.89501953 20.80810547 C74.96597809 20.81511475 74.03693665 20.82212402 73.07974243 20.8293457 C70.01395632 20.84692646 66.94909601 20.83530243 63.88330078 20.82177734 C61.75007958 20.82447223 59.61685958 20.82835462 57.48364258 20.83337402 C53.01485488 20.83926919 48.54638719 20.83070529 44.07763672 20.81201172 C38.35081001 20.78922243 32.62473316 20.80234537 26.89793396 20.82630157 C22.49355423 20.84075888 18.08935214 20.83615381 13.68496704 20.82579041 C11.57345491 20.82312295 9.46192662 20.82639354 7.35043335 20.83570862 C4.39871529 20.84587284 1.44820983 20.83037442 -1.50341797 20.80810547 C-2.81117691 20.82025085 -2.81117691 20.82025085 -4.14535522 20.8326416 C-8.22329926 20.77567358 -10.29879335 20.6069357 -13.83251953 18.39465332 C-16.59562585 15.44593715 -16.77553255 13.39273102 -17.00732422 9.47802734 C-16.69179136 6.07998112 -15.30192266 4.51822663 -12.80419922 2.29052734 C-8.90987252 -0.4227019 -4.55632287 -0.00493714 0 0 Z " fill="#FF9FC1" transform="translate(75.80419921875,92.70947265625)"/>
<path d="M0 0 C0.33 0 0.66 0 1 0 C1 30.69 1 61.38 1 93 C-5.93 94.65 -12.86 96.3 -20 98 C-21.98 99.65 -23.96 101.3 -26 103 C-26.6923818 67.41499475 -15.19120467 31.78900237 0 0 Z " fill="#273FB0" transform="translate(26,141)"/>
<path d="M0 0 C2.64 0 5.28 0 8 0 C16.56554994 42.98070593 10.98419607 90.65217561 -13 128 C-13.33 128 -13.66 128 -14 128 C-13.3781094 120.09047371 -12.62522235 112.20733257 -11.73046875 104.32421875 C-11.60950836 103.24861694 -11.48854797 102.17301514 -11.36392212 101.06481934 C-10.97389984 97.60546961 -10.58087817 94.14646959 -10.1875 90.6875 C-9.98633072 88.90915268 -9.98633072 88.90915268 -9.78109741 87.09487915 C-8.10161485 72.25980472 -6.32440172 57.44786418 -4.33764648 42.65087891 C-2.4729038 28.47724662 -1.23394929 14.24017283 0 0 Z " fill="#334EC8" transform="translate(439,232)"/>
<path d="M0 0 C8.53344861 0.00292467 16.99174007 0.50777429 25.4921875 1.20361328 C27.07294059 1.32988985 28.65437089 1.44793547 30.23632812 1.55810547 C32.55436665 1.71954667 34.86947858 1.90439304 37.18530273 2.09472656 C37.88743393 2.13970276 38.58956512 2.18467896 39.31297302 2.23101807 C43.99507615 2.65392644 46.57331889 3.83945062 49.90795898 7.14160156 C51.5164308 10.3585452 51.52105047 13.66297378 50.90795898 17.14160156 C48.73221483 19.83265355 46.99730042 21.59693084 43.90795898 23.14160156 C34.80356715 23.6572853 25.65449988 22.93331625 16.58496094 22.13452148 C15.16357447 22.01324166 13.74129263 21.90207143 12.31835938 21.80053711 C10.22212552 21.65078906 8.13018701 21.47181031 6.03686523 21.28613281 C4.81040283 21.1866333 3.58394043 21.08713379 2.3203125 20.98461914 C-2.07376528 19.89906784 -3.872547 18.28300355 -7.09204102 15.14160156 C-8.66139695 12.00288969 -8.44405204 9.60304334 -8.09204102 6.14160156 C-5.65454102 3.26660156 -5.65454102 3.26660156 -3.09204102 1.14160156 C-2.09204102 0.14160156 -2.09204102 0.14160156 0 0 Z " fill="#FF9601" transform="translate(283.092041015625,300.8583984375)"/>
<path d="M0 0 C0.84122406 -0.00953201 1.68244812 -0.01906403 2.54916382 -0.02888489 C3.45026886 -0.02797348 4.3513739 -0.02706207 5.27978516 -0.02612305 C6.21432526 -0.03040817 7.14886536 -0.0346933 8.11172485 -0.03910828 C10.08700756 -0.04484612 12.06231139 -0.04535585 14.03759766 -0.04101562 C17.05098791 -0.0378605 20.06339158 -0.06130488 23.07666016 -0.08666992 C24.99853392 -0.08894353 26.92041032 -0.08964612 28.84228516 -0.08862305 C29.73934174 -0.09783279 30.63639832 -0.10704254 31.56063843 -0.11653137 C36.67228338 -0.07896406 40.30196021 0.36083445 44.69384766 3.2746582 C46.79085189 6.42016456 47.02309234 8.33761255 47.25244141 12.04418945 C46.35693668 15.61994608 44.61355492 18.10800574 41.69384766 20.2746582 C38.09157023 21.15406848 34.57402625 21.06866807 30.88134766 21.0012207 C29.83487061 21.00221771 28.78839355 21.00321472 27.71020508 21.00424194 C25.50122468 20.99956818 23.29223292 20.98015575 21.08349609 20.94702148 C17.7052472 20.89981749 14.33015524 20.90590379 10.95166016 20.91918945 C8.80320387 20.90803545 6.65476085 20.8938154 4.50634766 20.8762207 C3.49789795 20.87804352 2.48944824 20.87986633 1.45043945 20.88174438 C-2.9701417 20.79251637 -5.59199963 20.7094254 -9.42895508 18.37353516 C-12.07886602 15.41069416 -12.28078515 13.32113754 -12.50927734 9.4621582 C-12.19374448 6.06411198 -10.80387578 4.50235749 -8.30615234 2.2746582 C-5.43293257 0.57140597 -3.32698258 0.02080131 0 0 Z " fill="#FF9FC1" transform="translate(71.30615234375,172.725341796875)"/>
<path d="M0 0 C1.69649026 3.092475 2.62225669 6.04383118 3.4453125 9.46875 C3.71335693 10.57831055 3.98140137 11.68787109 4.25756836 12.83105469 C4.5438208 14.04180664 4.83007324 15.25255859 5.125 16.5 C5.42994385 17.77520508 5.7348877 19.05041016 6.04907227 20.36425781 C8.6331434 31.22404915 11.04175858 42.1216789 13.43719482 53.02432251 C15.91216851 64.27821241 18.51713981 75.49346379 21.25 86.6875 C21.50254547 87.72413284 21.50254547 87.72413284 21.76019287 88.78170776 C23.29770586 95.09068038 24.84707285 101.39650638 26.42578125 107.6953125 C26.8047833 109.23435141 27.18370027 110.77341128 27.5625 112.3125 C27.87316406 113.54613281 28.18382813 114.77976562 28.50390625 116.05078125 C28.98819397 118.92981455 28.79593099 120.27846492 28 123 C8.46652041 84.25628989 -1.35539896 43.43532345 0 0 Z " fill="#2B3FAF" transform="translate(0,252)"/>
<path d="M0 0 C2.69105198 2.17574416 4.45532928 3.91065856 6 7 C6.2694968 10.931795 6.23162105 14.87251216 6.25 18.8125 C6.270625 19.90626953 6.29125 21.00003906 6.3125 22.12695312 C6.31765625 23.18462891 6.3228125 24.24230469 6.328125 25.33203125 C6.34214355 26.78186401 6.34214355 26.78186401 6.35644531 28.26098633 C5.83109443 32.29791204 4.04172247 34.92107316 1.25 37.8125 C-2.06779179 39.56355678 -4.30597275 39.51845997 -8 39 C-10.63016161 36.8272578 -12.47336894 35.05326212 -14 32 C-14.29785272 27.73515989 -14.27808765 23.4615133 -14.3125 19.1875 C-14.34150391 17.99833984 -14.37050781 16.80917969 -14.40039062 15.58398438 C-14.40876953 14.43607422 -14.41714844 13.28816406 -14.42578125 12.10546875 C-14.44036377 11.05512451 -14.45494629 10.00478027 -14.4699707 8.92260742 C-13.88395186 5.27833125 -12.53266275 3.63226019 -10 1 C-6.78305636 -0.60847182 -3.47862778 -0.61309149 0 0 Z " fill="#6A7ED8" transform="translate(324,433)"/>
<path d="M0 0 C3.11624837 0.48638359 4.36580742 1.27102385 7.0625 3.125 C9.48322913 6.68044591 10.1380042 8.75876051 10.0625 13.0625 C7.24253288 18.00606094 3.59639336 21.83348954 -0.4375 25.8125 C-1.00597656 26.38871094 -1.57445312 26.96492188 -2.16015625 27.55859375 C-2.71574219 28.11160156 -3.27132813 28.66460937 -3.84375 29.234375 C-4.34197266 29.7303418 -4.84019531 30.22630859 -5.35351562 30.73730469 C-8.27499419 33.18147633 -10.58758651 34.01796556 -14.375 34.5 C-18.85653826 33.94963565 -20.14602117 32.51079737 -22.9375 29.0625 C-24.44639469 26.04471063 -24.43776276 24.43927363 -23.9375 21.0625 C-21.97358871 18.04937583 -19.44784802 15.62356212 -16.9375 13.0625 C-15.99471498 12.0049881 -15.05478821 10.94492357 -14.1171875 9.8828125 C-5.42126499 0.2805663 -5.42126499 0.2805663 0 0 Z " fill="#6A7ED8" transform="translate(290.9375,419.9375)"/>
<path d="M0 0 C4.48606961 1.23102584 7.17495924 4.3583818 10.3203125 7.63671875 C11.650625 8.93416016 11.650625 8.93416016 13.0078125 10.2578125 C21.20949482 18.28474307 21.20949482 18.28474307 21.6328125 23.44921875 C21.56691234 26.4696429 21.25629432 27.76753851 19.8828125 30.57421875 C16.77576718 33.07501132 14.62920208 33.80547369 10.671875 34.01171875 C6.01507349 33.26910589 3.44378514 29.93835738 0.3203125 26.63671875 C-0.6460833 25.68377781 -1.61637697 24.73477901 -2.58984375 23.7890625 C-11.51451636 15.06820197 -11.51451636 15.06820197 -12.0546875 10.38671875 C-11.31435675 2.98341127 -7.24772227 -0.5381972 0 0 Z " fill="#6B7ED8" transform="translate(350.6796875,420.36328125)"/>
<path d="M0 0 C2.4375 1.6875 2.4375 1.6875 4 4 C4.63924557 7.7555677 4.29008409 9.47784863 2.4375 12.8125 C-0.76996843 15.69099731 -2.7149334 16.07517661 -7 16 C-9.875 14.5 -9.875 14.5 -12 12 C-13.0625 8.5625 -13.0625 8.5625 -13 5 C-9.25333712 -0.9429825 -6.7508412 -1.51311958 0 0 Z " fill="#FFEDF0" transform="translate(122,352)"/>
</svg>
